<?xml version="1.0" encoding="UTF-8"?><!DOCTYPE score-partwise PUBLIC "-//Recordare//DTD MusicXML 3.1 Partwise//EN" "http://www.musicxml.org/dtds/partwise.dtd">
<score-partwise version="3.1">
  <movement-title>480장 천국에서 만나보자</movement-title>
  <identification>
    <creator type="poet">I.G.Martin</creator>
    <rights>Copyright 2022 David Sung</rights>
    <encoding>
      <software>MuseScore 3.6.2</software>
      <encoding-date>2022-03-15</encoding-date>
      <supports element="accidental" type="yes" />
      <supports element="beam" type="yes" />
      <supports element="print" attribute="new-page" type="yes" value="yes" />
      <supports element="print" attribute="new-system" type="yes" value="yes" />
      <supports element="stem" type="yes" />
      </encoding>
    </identification>
  <defaults>
    <scaling>
      <millimeters>6.99911</millimeters>
      <tenths>40</tenths>
      </scaling>
    <page-layout>
      <page-height>1697.36</page-height>
      <page-width>1200.15</page-width>
      <page-margins type="even">
        <left-margin>85.7252</left-margin>
        <right-margin>85.7252</right-margin>
        <top-margin>85.7252</top-margin>
        <bottom-margin>85.7252</bottom-margin>
        </page-margins>
      <page-margins type="odd">
        <left-margin>85.7252</left-margin>
        <right-margin>85.7252</right-margin>
        <top-margin>85.7252</top-margin>
        <bottom-margin>85.7252</bottom-margin>
        </page-margins>
      </page-layout>
    <word-font font-family="Edwin" font-size="10" />
    <lyric-font font-family="Edwin" font-size="10" />
    </defaults>
  <credit page="1">
    <credit-type>title</credit-type>
    <credit-words default-x="600.076" default-y="1611.63" justify="center" valign="top" font-size="22">480장 천국에서 만나보자</credit-words>
    </credit>
  <credit page="1">
    <credit-type>lyricist</credit-type>
    <credit-words default-x="85.7252" default-y="1511.63" justify="left" valign="bottom">I.G.Martin</credit-words>
    </credit>
  <credit page="1">
    <credit-type>rights</credit-type>
    <credit-words default-x="600.076" default-y="85.7252" justify="center" valign="bottom" font-size="9">Copyright 2022 David Sung</credit-words>
    </credit>
  <credit page="2">
    <credit-type>rights</credit-type>
    <credit-words default-x="600.076" default-y="85.7252" justify="center" valign="bottom" font-size="9">Copyright 2022 David Sung</credit-words>
    </credit>
  <part-list>
    <score-part id="P1">
      <part-name>S</part-name>
      <score-instrument id="P1-I1">
        <instrument-name />
        </score-instrument>
      <midi-device id="P1-I1" port="1" />
      <midi-instrument id="P1-I1">
        <midi-channel>1</midi-channel>
        <midi-program>1</midi-program>
        <volume>78.7402</volume>
        <pan>0</pan>
        </midi-instrument>
      </score-part>
    </part-list>
  <part id="P1">
    <measure number="1" width="295.33">
      <print>
        <system-layout>
          <system-margins>
            <left-margin>50.00</left-margin>
            <right-margin>0.00</right-margin>
            </system-margins>
          <top-system-distance>170.00</top-system-distance>
          </system-layout>
        </print>
      <attributes>
        <divisions>4</divisions>
        <key>
          <fifths>1</fifths>
          <mode>major</mode>
          </key>
        <time>
          <beats>4</beats>
          <beat-type>4</beat-type>
          </time>
        <clef>
          <sign>G</sign>
          <line>2</line>
          </clef>
        </attributes>
      <direction placement="above">
        <direction-type>
          <metronome parentheses="no" default-x="-41.18" relative-y="20.00">
            <beat-unit>quarter</beat-unit>
            <per-minute>100</per-minute>
            </metronome>
          </direction-type>
        <sound tempo="100" />
        </direction>
      <note default-x="106.75" default-y="-45.00">
        <pitch>
          <step>D</step>
          <octave>4</octave>
          </pitch>
        <duration>6</duration>
        <voice>1</voice>
        <type>quarter</type>
        <dot />
        <stem>up</stem>
        <lyric number="1" default-x="-14.79" default-y="-47.44" relative-y="-30.00">
          <syllabic>single</syllabic>
          <text>1.천</text>
          </lyric>
        <lyric number="2" default-x="-16.10" default-y="-69.18" relative-y="-30.00">
          <syllabic>single</syllabic>
          <text>2.너</text>
          </lyric>
        <lyric number="3" default-x="-15.97" default-y="-90.92" relative-y="-30.00">
          <syllabic>single</syllabic>
          <text>3.기</text>
          </lyric>
        </note>
      <note default-x="156.84" default-y="-45.00">
        <pitch>
          <step>D</step>
          <octave>4</octave>
          </pitch>
        <duration>2</duration>
        <voice>1</voice>
        <type>eighth</type>
        <stem>up</stem>
        <lyric number="1" default-x="6.50" default-y="-47.44" relative-y="-30.00">
          <syllabic>single</syllabic>
          <text>국</text>
          </lyric>
        <lyric number="2" default-x="6.50" default-y="-69.18" relative-y="-30.00">
          <syllabic>single</syllabic>
          <text>의</text>
          </lyric>
        <lyric number="3" default-x="6.50" default-y="-90.92" relative-y="-30.00">
          <syllabic>single</syllabic>
          <text>다</text>
          </lyric>
        </note>
      <note default-x="185.80" default-y="-40.00">
        <pitch>
          <step>E</step>
          <octave>4</octave>
          </pitch>
        <duration>2</duration>
        <voice>1</voice>
        <type>eighth</type>
        <stem>up</stem>
        <beam number="1">begin</beam>
        <lyric number="1" default-x="6.50" default-y="-47.44" relative-y="-30.00">
          <syllabic>single</syllabic>
          <text>에</text>
          </lyric>
        <lyric number="2" default-x="6.50" default-y="-69.18" relative-y="-30.00">
          <syllabic>single</syllabic>
          <text>등</text>
          </lyric>
        <lyric number="3" default-x="6.50" default-y="-90.92" relative-y="-30.00">
          <syllabic>single</syllabic>
          <text>리</text>
          </lyric>
        </note>
      <note default-x="211.48" default-y="-45.00">
        <pitch>
          <step>D</step>
          <octave>4</octave>
          </pitch>
        <duration>2</duration>
        <voice>1</voice>
        <type>eighth</type>
        <stem>up</stem>
        <beam number="1">continue</beam>
        <lyric number="1" default-x="6.50" default-y="-47.44" relative-y="-30.00">
          <syllabic>single</syllabic>
          <text>서</text>
          </lyric>
        <lyric number="2" default-x="6.50" default-y="-69.18" relative-y="-30.00">
          <syllabic>single</syllabic>
          <text>불</text>
          </lyric>
        <lyric number="3" default-x="6.50" default-y="-90.92" relative-y="-30.00">
          <syllabic>single</syllabic>
          <text>던</text>
          </lyric>
        </note>
      <note default-x="237.16" default-y="-30.00">
        <pitch>
          <step>G</step>
          <octave>4</octave>
          </pitch>
        <duration>2</duration>
        <voice>1</voice>
        <type>eighth</type>
        <stem>up</stem>
        <beam number="1">continue</beam>
        <lyric number="1" default-x="6.50" default-y="-47.44" relative-y="-30.00">
          <syllabic>single</syllabic>
          <text>만</text>
          </lyric>
        <lyric number="2" default-x="6.50" default-y="-69.18" relative-y="-30.00">
          <syllabic>single</syllabic>
          <text>밝</text>
          </lyric>
        <lyric number="3" default-x="6.50" default-y="-90.92" relative-y="-30.00">
          <syllabic>single</syllabic>
          <text>성</text>
          </lyric>
        </note>
      <note default-x="262.83" default-y="-25.00">
        <pitch>
          <step>A</step>
          <octave>4</octave>
          </pitch>
        <duration>2</duration>
        <voice>1</voice>
        <type>eighth</type>
        <stem>up</stem>
        <beam number="1">end</beam>
        <lyric number="1" default-x="6.50" default-y="-47.44" relative-y="-30.00">
          <syllabic>single</syllabic>
          <text>나</text>
          </lyric>
        <lyric number="2" default-x="6.50" default-y="-69.18" relative-y="-30.00">
          <syllabic>single</syllabic>
          <text>혀</text>
          </lyric>
        <lyric number="3" default-x="6.50" default-y="-90.92" relative-y="-30.00">
          <syllabic>single</syllabic>
          <text>도</text>
          </lyric>
        </note>
      </measure>
    <measure number="2" width="91.32">
      <note default-x="15.70" default-y="-20.00">
        <pitch>
          <step>B</step>
          <octave>4</octave>
          </pitch>
        <duration>8</duration>
        <voice>1</voice>
        <type>half</type>
        <stem>down</stem>
        <lyric number="1" default-x="6.50" default-y="-47.44" relative-y="-30.00">
          <syllabic>single</syllabic>
          <text>보</text>
          </lyric>
        <lyric number="2" default-x="6.50" default-y="-69.18" relative-y="-30.00">
          <syllabic>single</syllabic>
          <text>있</text>
          </lyric>
        <lyric number="3" default-x="6.50" default-y="-90.92" relative-y="-30.00">
          <syllabic>single</syllabic>
          <text>들</text>
          </lyric>
        </note>
      <note default-x="52.61" default-y="-30.00">
        <pitch>
          <step>G</step>
          <octave>4</octave>
          </pitch>
        <duration>8</duration>
        <voice>1</voice>
        <type>half</type>
        <stem>up</stem>
        <lyric number="1" default-x="6.50" default-y="-47.44" relative-y="-30.00">
          <syllabic>single</syllabic>
          <text>자</text>
          </lyric>
        <lyric number="2" default-x="6.50" default-y="-69.18" relative-y="-30.00">
          <syllabic>single</syllabic>
          <text>나</text>
          </lyric>
        <lyric number="3" default-x="6.50" default-y="-90.92" relative-y="-30.00">
          <syllabic>single</syllabic>
          <text>과</text>
          </lyric>
        </note>
      </measure>
    <measure number="3" width="208.62">
      <note default-x="16.50" default-y="-40.00">
        <pitch>
          <step>E</step>
          <octave>4</octave>
          </pitch>
        <duration>6</duration>
        <voice>1</voice>
        <type>quarter</type>
        <dot />
        <stem>up</stem>
        <lyric number="1" default-x="6.50" default-y="-47.44" relative-y="-30.00">
          <syllabic>single</syllabic>
          <text>그</text>
          </lyric>
        <lyric number="2" default-x="6.50" default-y="-69.18" relative-y="-30.00">
          <syllabic>single</syllabic>
          <text>기</text>
          </lyric>
        <lyric number="3" default-x="6.50" default-y="-90.92" relative-y="-30.00">
          <syllabic>single</syllabic>
          <text>그</text>
          </lyric>
        </note>
      <note default-x="60.31" default-y="-35.00">
        <pitch>
          <step>F</step>
          <alter>1</alter>
          <octave>4</octave>
          </pitch>
        <duration>2</duration>
        <voice>1</voice>
        <type>eighth</type>
        <stem>up</stem>
        <lyric number="1" default-x="6.50" default-y="-47.44" relative-y="-30.00">
          <syllabic>single</syllabic>
          <text>날</text>
          </lyric>
        <lyric number="2" default-x="6.50" default-y="-69.18" relative-y="-30.00">
          <syllabic>single</syllabic>
          <text>다</text>
          </lyric>
        <lyric number="3" default-x="6.50" default-y="-90.92" relative-y="-30.00">
          <syllabic>single</syllabic>
          <text>문</text>
          </lyric>
        </note>
      <note default-x="87.78" default-y="-30.00">
        <pitch>
          <step>G</step>
          <octave>4</octave>
          </pitch>
        <duration>2</duration>
        <voice>1</voice>
        <type>eighth</type>
        <stem>up</stem>
        <beam number="1">begin</beam>
        <lyric number="1" default-x="6.50" default-y="-47.44" relative-y="-30.00">
          <syllabic>single</syllabic>
          <text>아</text>
          </lyric>
        <lyric number="2" default-x="6.50" default-y="-69.18" relative-y="-30.00">
          <syllabic>single</syllabic>
          <text>린</text>
          </lyric>
        <lyric number="3" default-x="6.50" default-y="-90.92" relative-y="-30.00">
          <syllabic>single</syllabic>
          <text>에</text>
          </lyric>
        </note>
      <note default-x="115.26" default-y="-25.00">
        <pitch>
          <step>A</step>
          <octave>4</octave>
          </pitch>
        <duration>2</duration>
        <voice>1</voice>
        <type>eighth</type>
        <stem>up</stem>
        <beam number="1">end</beam>
        <lyric number="1" default-x="6.50" default-y="-47.44" relative-y="-30.00">
          <syllabic>single</syllabic>
          <text>침</text>
          </lyric>
        <lyric number="2" default-x="6.50" default-y="-69.18" relative-y="-30.00">
          <syllabic>single</syllabic>
          <text>다</text>
          </lyric>
        <lyric number="3" default-x="6.50" default-y="-90.92" relative-y="-30.00">
          <syllabic>single</syllabic>
          <text>서</text>
          </lyric>
        </note>
      <note default-x="142.74" default-y="-30.00">
        <pitch>
          <step>G</step>
          <octave>4</octave>
          </pitch>
        <duration>3</duration>
        <voice>1</voice>
        <type>eighth</type>
        <dot />
        <stem>up</stem>
        <beam number="1">begin</beam>
        <lyric number="1" default-x="6.50" default-y="-47.44" relative-y="-30.00">
          <syllabic>single</syllabic>
          <text>거</text>
          </lyric>
        <lyric number="2" default-x="6.50" default-y="-69.18" relative-y="-30.00">
          <syllabic>single</syllabic>
          <text>신</text>
          </lyric>
        <lyric number="3" default-x="6.50" default-y="-90.92" relative-y="-30.00">
          <syllabic>single</syllabic>
          <text>만</text>
          </lyric>
        </note>
      <note default-x="176.24" default-y="-40.00">
        <pitch>
          <step>E</step>
          <octave>4</octave>
          </pitch>
        <duration>1</duration>
        <voice>1</voice>
        <type>16th</type>
        <stem>up</stem>
        <beam number="1">end</beam>
        <beam number="2">backward hook</beam>
        <lyric number="1" default-x="6.50" default-y="-47.44" relative-y="-30.00">
          <syllabic>single</syllabic>
          <text>기</text>
          </lyric>
        <lyric number="2" default-x="6.50" default-y="-69.18" relative-y="-30.00">
          <syllabic>single</syllabic>
          <text>랑</text>
          </lyric>
        <lyric number="3" default-x="6.50" default-y="-90.92" relative-y="-30.00">
          <syllabic>single</syllabic>
          <text>날</text>
          </lyric>
        </note>
      </measure>
    <measure number="4" width="92.07">
      <note default-x="16.50" default-y="-45.00">
        <pitch>
          <step>D</step>
          <octave>4</octave>
          </pitch>
        <duration>12</duration>
        <voice>1</voice>
        <type>half</type>
        <dot />
        <stem>up</stem>
        <lyric number="1" default-x="6.50" default-y="-47.44" relative-y="-30.00">
          <syllabic>single</syllabic>
          <text>서</text>
          </lyric>
        <lyric number="2" default-x="6.50" default-y="-69.18" relative-y="-30.00">
          <syllabic>single</syllabic>
          <text>이</text>
          </lyric>
        <lyric number="3" default-x="6.50" default-y="-90.92" relative-y="-30.00">
          <syllabic>single</syllabic>
          <text>때</text>
          </lyric>
        </note>
      <note>
        <rest />
        <duration>4</duration>
        <voice>1</voice>
        <type>quarter</type>
        </note>
      </measure>
    <measure number="5" width="200.67">
      <note default-x="16.00" default-y="-20.00">
        <pitch>
          <step>B</step>
          <octave>4</octave>
          </pitch>
        <duration>6</duration>
        <voice>1</voice>
        <type>quarter</type>
        <dot />
        <stem>down</stem>
        <lyric number="1" default-x="6.50" default-y="-47.44" relative-y="-30.00">
          <syllabic>single</syllabic>
          <text>순</text>
          </lyric>
        <lyric number="2" default-x="6.50" default-y="-69.18" relative-y="-30.00">
          <syllabic>single</syllabic>
          <text>천</text>
          </lyric>
        <lyric number="3" default-x="6.50" default-y="-90.92" relative-y="-30.00">
          <syllabic>single</syllabic>
          <text>참</text>
          </lyric>
        </note>
      <note default-x="65.50" default-y="-25.00">
        <pitch>
          <step>A</step>
          <octave>4</octave>
          </pitch>
        <duration>2</duration>
        <voice>1</voice>
        <type>eighth</type>
        <stem>up</stem>
        <lyric number="1" default-x="6.50" default-y="-47.44" relative-y="-30.00">
          <syllabic>single</syllabic>
          <text>례</text>
          </lyric>
        <lyric number="2" default-x="6.50" default-y="-69.18" relative-y="-30.00">
          <syllabic>single</syllabic>
          <text>국</text>
          </lyric>
        <lyric number="3" default-x="6.50" default-y="-90.92" relative-y="-30.00">
          <syllabic>single</syllabic>
          <text>즐</text>
          </lyric>
        </note>
      <note default-x="92.05" default-y="-30.00">
        <pitch>
          <step>G</step>
          <octave>4</octave>
          </pitch>
        <duration>2</duration>
        <voice>1</voice>
        <type>eighth</type>
        <stem>up</stem>
        <beam number="1">begin</beam>
        <lyric number="1" default-x="6.50" default-y="-47.44" relative-y="-30.00">
          <syllabic>single</syllabic>
          <text>자</text>
          </lyric>
        <lyric number="2" default-x="6.50" default-y="-69.18" relative-y="-30.00">
          <syllabic>single</syllabic>
          <text>문</text>
          </lyric>
        <lyric number="3" default-x="6.50" default-y="-90.92" relative-y="-30.00">
          <syllabic>single</syllabic>
          <text>거</text>
          </lyric>
        </note>
      <note default-x="117.43" default-y="-35.00">
        <pitch>
          <step>F</step>
          <alter>1</alter>
          <octave>4</octave>
          </pitch>
        <duration>2</duration>
        <voice>1</voice>
        <type>eighth</type>
        <stem>up</stem>
        <beam number="1">continue</beam>
        <lyric number="1" default-x="6.50" default-y="-47.44" relative-y="-30.00">
          <syllabic>single</syllabic>
          <text>여</text>
          </lyric>
        <lyric number="2" default-x="6.50" default-y="-69.18" relative-y="-30.00">
          <syllabic>single</syllabic>
          <text>에</text>
          </lyric>
        <lyric number="3" default-x="6.50" default-y="-90.92" relative-y="-30.00">
          <syllabic>single</syllabic>
          <text>운</text>
          </lyric>
        </note>
      <note default-x="142.80" default-y="-30.00">
        <pitch>
          <step>G</step>
          <octave>4</octave>
          </pitch>
        <duration>2</duration>
        <voice>1</voice>
        <type>eighth</type>
        <stem>up</stem>
        <beam number="1">continue</beam>
        <lyric number="1" default-x="6.50" default-y="-47.44" relative-y="-30.00">
          <syllabic>single</syllabic>
          <text>예</text>
          </lyric>
        <lyric number="2" default-x="6.50" default-y="-69.18" relative-y="-30.00">
          <syllabic>single</syllabic>
          <text>이</text>
          </lyric>
        <lyric number="3" default-x="6.50" default-y="-90.92" relative-y="-30.00">
          <syllabic>single</syllabic>
          <text>우</text>
          </lyric>
        </note>
      <note default-x="168.17" default-y="-20.00">
        <pitch>
          <step>B</step>
          <octave>4</octave>
          </pitch>
        <duration>2</duration>
        <voice>1</voice>
        <type>eighth</type>
        <stem>up</stem>
        <beam number="1">end</beam>
        <lyric number="1" default-x="6.50" default-y="-47.44" relative-y="-30.00">
          <syllabic>single</syllabic>
          <text>비</text>
          </lyric>
        <lyric number="2" default-x="6.50" default-y="-69.18" relative-y="-30.00">
          <syllabic>single</syllabic>
          <text>를</text>
          </lyric>
        <lyric number="3" default-x="6.50" default-y="-90.92" relative-y="-30.00">
          <syllabic>single</syllabic>
          <text>리</text>
          </lyric>
        </note>
      </measure>
    <measure number="6" width="90.68">
      <note default-x="16.00" default-y="-25.00">
        <pitch>
          <step>A</step>
          <octave>4</octave>
          </pitch>
        <duration>8</duration>
        <voice>1</voice>
        <type>half</type>
        <stem>up</stem>
        <lyric number="1" default-x="6.50" default-y="-47.44" relative-y="-30.00">
          <syllabic>single</syllabic>
          <text>하</text>
          </lyric>
        <lyric number="2" default-x="6.50" default-y="-69.18" relative-y="-30.00">
          <syllabic>single</syllabic>
          <text>때</text>
          </lyric>
        <lyric number="3" default-x="6.50" default-y="-90.92" relative-y="-30.00">
          <syllabic>single</syllabic>
          <text>모</text>
          </lyric>
        </note>
      <note default-x="52.44" default-y="-40.00">
        <pitch>
          <step>E</step>
          <octave>4</octave>
          </pitch>
        <duration>8</duration>
        <voice>1</voice>
        <type>half</type>
        <stem>up</stem>
        <lyric number="1" default-x="6.50" default-y="-47.44" relative-y="-30.00">
          <syllabic>single</syllabic>
          <text>라</text>
          </lyric>
        <lyric number="2" default-x="6.50" default-y="-69.18" relative-y="-30.00">
          <syllabic>single</syllabic>
          <text>에</text>
          </lyric>
        <lyric number="3" default-x="6.50" default-y="-90.92" relative-y="-30.00">
          <syllabic>single</syllabic>
          <text>임</text>
          </lyric>
        </note>
      </measure>
    <measure number="7" width="313.69">
      <print new-system="yes">
        <system-layout>
          <system-margins>
            <left-margin>0.00</left-margin>
            <right-margin>0.00</right-margin>
            </system-margins>
          <system-distance>150.00</system-distance>
          </system-layout>
        </print>
      <note default-x="84.62" default-y="-35.00">
        <pitch>
          <step>F</step>
          <alter>1</alter>
          <octave>4</octave>
          </pitch>
        <duration>6</duration>
        <voice>1</voice>
        <type>quarter</type>
        <dot />
        <stem>up</stem>
        <lyric number="1" default-x="6.50" default-y="-56.60" relative-y="-30.00">
          <syllabic>single</syllabic>
          <text>늦</text>
          </lyric>
        <lyric number="2" default-x="6.50" default-y="-78.34" relative-y="-30.00">
          <syllabic>single</syllabic>
          <text>그</text>
          </lyric>
        <lyric number="3" default-x="6.50" default-y="-100.08" relative-y="-30.00">
          <syllabic>single</syllabic>
          <text>그</text>
          </lyric>
        </note>
      <note default-x="138.53" default-y="-30.00">
        <pitch>
          <step>G</step>
          <octave>4</octave>
          </pitch>
        <duration>2</duration>
        <voice>1</voice>
        <type>eighth</type>
        <stem>up</stem>
        <lyric number="1" default-x="6.50" default-y="-56.60" relative-y="-30.00">
          <syllabic>single</syllabic>
          <text>어</text>
          </lyric>
        <lyric number="2" default-x="6.50" default-y="-78.34" relative-y="-30.00">
          <syllabic>single</syllabic>
          <text>가</text>
          </lyric>
        <lyric number="3" default-x="6.50" default-y="-100.08" relative-y="-30.00">
          <syllabic>single</syllabic>
          <text>얼</text>
          </lyric>
        </note>
      <note default-x="172.34" default-y="-25.00">
        <pitch>
          <step>A</step>
          <octave>4</octave>
          </pitch>
        <duration>2</duration>
        <voice>1</voice>
        <type>eighth</type>
        <stem>down</stem>
        <beam number="1">begin</beam>
        <lyric number="1" default-x="6.50" default-y="-56.60" relative-y="-30.00">
          <syllabic>single</syllabic>
          <text>지</text>
          </lyric>
        <lyric number="2" default-x="6.50" default-y="-78.34" relative-y="-30.00">
          <syllabic>single</syllabic>
          <text>반</text>
          </lyric>
        <lyric number="3" default-x="6.50" default-y="-100.08" relative-y="-30.00">
          <syllabic>single</syllabic>
          <text>마</text>
          </lyric>
        </note>
      <note default-x="206.15" default-y="-15.00">
        <pitch>
          <step>C</step>
          <octave>5</octave>
          </pitch>
        <duration>2</duration>
        <voice>1</voice>
        <type>eighth</type>
        <stem>down</stem>
        <beam number="1">end</beam>
        <lyric number="1" default-x="6.50" default-y="-56.60" relative-y="-30.00">
          <syllabic>single</syllabic>
          <text>지</text>
          </lyric>
        <lyric number="2" default-x="6.50" default-y="-78.34" relative-y="-30.00">
          <syllabic>single</syllabic>
          <text>겨</text>
          </lyric>
        <lyric number="3" default-x="6.50" default-y="-100.08" relative-y="-30.00">
          <syllabic>single</syllabic>
          <text>나</text>
          </lyric>
        </note>
      <note default-x="239.96" default-y="-20.00">
        <pitch>
          <step>B</step>
          <octave>4</octave>
          </pitch>
        <duration>3</duration>
        <voice>1</voice>
        <type>eighth</type>
        <dot />
        <stem>up</stem>
        <beam number="1">begin</beam>
        <lyric number="1" default-x="6.50" default-y="-56.60" relative-y="-30.00">
          <syllabic>single</syllabic>
          <text>않</text>
          </lyric>
        <lyric number="2" default-x="6.50" default-y="-78.34" relative-y="-30.00">
          <syllabic>single</syllabic>
          <text>맞</text>
          </lyric>
        <lyric number="3" default-x="6.50" default-y="-100.08" relative-y="-30.00">
          <syllabic>single</syllabic>
          <text>기</text>
          </lyric>
        </note>
      <note default-x="281.19" default-y="-25.00">
        <pitch>
          <step>A</step>
          <octave>4</octave>
          </pitch>
        <duration>1</duration>
        <voice>1</voice>
        <type>16th</type>
        <stem>up</stem>
        <beam number="1">end</beam>
        <beam number="2">backward hook</beam>
        <lyric number="1" default-x="6.50" default-y="-56.60" relative-y="-30.00">
          <syllabic>single</syllabic>
          <text>도</text>
          </lyric>
        <lyric number="2" default-x="6.50" default-y="-78.34" relative-y="-30.00">
          <syllabic>single</syllabic>
          <text>으</text>
          </lyric>
        <lyric number="3" default-x="6.50" default-y="-100.08" relative-y="-30.00">
          <syllabic>single</syllabic>
          <text>쁘</text>
          </lyric>
        </note>
      </measure>
    <measure number="8" width="159.43">
      <note default-x="16.50" default-y="-30.00">
        <pitch>
          <step>G</step>
          <octave>4</octave>
          </pitch>
        <duration>12</duration>
        <voice>1</voice>
        <type>half</type>
        <dot />
        <stem>up</stem>
        <lyric number="1" default-x="6.50" default-y="-56.60" relative-y="-30.00">
          <syllabic>single</syllabic>
          <text>록</text>
          </lyric>
        <lyric number="2" default-x="6.50" default-y="-78.34" relative-y="-30.00">
          <syllabic>single</syllabic>
          <text>리</text>
          </lyric>
        <lyric number="3" default-x="6.50" default-y="-100.08" relative-y="-30.00">
          <syllabic>single</syllabic>
          <text>랴</text>
          </lyric>
        </note>
      <note default-x="95.61" default-y="-55.00">
        <pitch>
          <step>B</step>
          <octave>3</octave>
          </pitch>
        <duration>2</duration>
        <voice>1</voice>
        <type>eighth</type>
        <stem>up</stem>
        <beam number="1">begin</beam>
        <lyric number="1" default-x="6.50" default-y="-56.60" relative-y="-30.00">
          <syllabic>single</syllabic>
          <text>만</text>
          </lyric>
        <lyric number="2" default-x="6.50" default-y="-78.34" relative-y="-30.00">
          <syllabic>single</syllabic>
          <text>만</text>
          </lyric>
        <lyric number="3" default-x="6.50" default-y="-100.08" relative-y="-30.00">
          <syllabic>single</syllabic>
          <text>만</text>
          </lyric>
        </note>
      <note default-x="126.62" default-y="-45.00">
        <pitch>
          <step>D</step>
          <octave>4</octave>
          </pitch>
        <duration>2</duration>
        <voice>1</voice>
        <type>eighth</type>
        <stem>up</stem>
        <beam number="1">end</beam>
        <lyric number="1" default-x="6.50" default-y="-56.60" relative-y="-30.00">
          <syllabic>single</syllabic>
          <text>나</text>
          </lyric>
        <lyric number="2" default-x="6.50" default-y="-78.34" relative-y="-30.00">
          <syllabic>single</syllabic>
          <text>나</text>
          </lyric>
        <lyric number="3" default-x="6.50" default-y="-100.08" relative-y="-30.00">
          <syllabic>single</syllabic>
          <text>나</text>
          </lyric>
        </note>
      </measure>
    <measure number="9" width="293.81">
      <note default-x="16.50" default-y="-30.00">
        <pitch>
          <step>G</step>
          <octave>4</octave>
          </pitch>
        <duration>1</duration>
        <voice>1</voice>
        <type>16th</type>
        <stem>up</stem>
        <beam number="1">begin</beam>
        <beam number="2">forward hook</beam>
        <lyric number="1" default-x="6.50" default-y="-56.60" relative-y="-30.00">
          <syllabic>single</syllabic>
          <text>보</text>
          </lyric>
        <lyric number="2" default-x="6.50" default-y="-78.34" relative-y="-30.00">
          <syllabic>single</syllabic>
          <text>보</text>
          </lyric>
        <lyric number="3" default-x="6.50" default-y="-100.08" relative-y="-30.00">
          <syllabic>single</syllabic>
          <text>보</text>
          </lyric>
        </note>
      <note default-x="38.90" default-y="-30.00">
        <pitch>
          <step>G</step>
          <octave>4</octave>
          </pitch>
        <duration>3</duration>
        <voice>1</voice>
        <type>eighth</type>
        <dot />
        <stem>up</stem>
        <beam number="1">end</beam>
        <lyric number="1" default-x="6.50" default-y="-56.60" relative-y="-30.00">
          <syllabic>single</syllabic>
          <text>자</text>
          </lyric>
        <lyric number="2" default-x="6.50" default-y="-78.34" relative-y="-30.00">
          <syllabic>single</syllabic>
          <text>자</text>
          </lyric>
        <lyric number="3" default-x="6.50" default-y="-100.08" relative-y="-30.00">
          <syllabic>single</syllabic>
          <text>자</text>
          </lyric>
        </note>
      <note>
        <rest />
        <duration>4</duration>
        <voice>1</voice>
        <type>quarter</type>
        </note>
      <note>
        <rest />
        <duration>4</duration>
        <voice>1</voice>
        <type>quarter</type>
        </note>
      <note default-x="220.34" default-y="-45.00">
        <pitch>
          <step>D</step>
          <octave>4</octave>
          </pitch>
        <duration>2</duration>
        <voice>1</voice>
        <type>eighth</type>
        <stem>up</stem>
        <beam number="1">begin</beam>
        <lyric number="1" default-x="6.50" default-y="-56.60" relative-y="-30.00">
          <syllabic>single</syllabic>
          <text>만</text>
          </lyric>
        <lyric number="2" default-x="6.50" default-y="-78.34" relative-y="-30.00">
          <syllabic>single</syllabic>
          <text>만</text>
          </lyric>
        <lyric number="3" default-x="6.50" default-y="-100.08" relative-y="-30.00">
          <syllabic>single</syllabic>
          <text>만</text>
          </lyric>
        </note>
      <note default-x="256.18" default-y="-30.00">
        <pitch>
          <step>G</step>
          <octave>4</octave>
          </pitch>
        <duration>2</duration>
        <voice>1</voice>
        <type>eighth</type>
        <stem>up</stem>
        <beam number="1">end</beam>
        <lyric number="1" default-x="6.50" default-y="-56.60" relative-y="-30.00">
          <syllabic>single</syllabic>
          <text>나</text>
          </lyric>
        <lyric number="2" default-x="6.50" default-y="-78.34" relative-y="-30.00">
          <syllabic>single</syllabic>
          <text>나</text>
          </lyric>
        <lyric number="3" default-x="6.50" default-y="-100.08" relative-y="-30.00">
          <syllabic>single</syllabic>
          <text>나</text>
          </lyric>
        </note>
      </measure>
    <measure number="10" width="261.78">
      <note default-x="15.70" default-y="-20.00">
        <pitch>
          <step>B</step>
          <octave>4</octave>
          </pitch>
        <duration>1</duration>
        <voice>1</voice>
        <type>16th</type>
        <stem>down</stem>
        <beam number="1">begin</beam>
        <beam number="2">forward hook</beam>
        <lyric number="1" default-x="6.50" default-y="-56.60" relative-y="-30.00">
          <syllabic>single</syllabic>
          <text>보</text>
          </lyric>
        <lyric number="2" default-x="6.50" default-y="-78.34" relative-y="-30.00">
          <syllabic>single</syllabic>
          <text>보</text>
          </lyric>
        <lyric number="3" default-x="6.50" default-y="-100.08" relative-y="-30.00">
          <syllabic>single</syllabic>
          <text>보</text>
          </lyric>
        </note>
      <note default-x="36.54" default-y="-20.00">
        <pitch>
          <step>B</step>
          <octave>4</octave>
          </pitch>
        <duration>3</duration>
        <voice>1</voice>
        <type>eighth</type>
        <dot />
        <stem>down</stem>
        <beam number="1">end</beam>
        <lyric number="1" default-x="6.50" default-y="-56.60" relative-y="-30.00">
          <syllabic>single</syllabic>
          <text>자</text>
          </lyric>
        <lyric number="2" default-x="6.50" default-y="-78.34" relative-y="-30.00">
          <syllabic>single</syllabic>
          <text>자</text>
          </lyric>
        <lyric number="3" default-x="6.50" default-y="-100.08" relative-y="-30.00">
          <syllabic>single</syllabic>
          <text>자</text>
          </lyric>
        </note>
      <note>
        <rest />
        <duration>4</duration>
        <voice>1</voice>
        <type>quarter</type>
        </note>
      <note>
        <rest />
        <duration>4</duration>
        <voice>1</voice>
        <type>quarter</type>
        </note>
      <note default-x="196.71" default-y="-30.00">
        <pitch>
          <step>G</step>
          <octave>4</octave>
          </pitch>
        <duration>2</duration>
        <voice>1</voice>
        <type>eighth</type>
        <stem>up</stem>
        <beam number="1">begin</beam>
        <lyric number="1" default-x="6.50" default-y="-56.60" relative-y="-30.00">
          <syllabic>single</syllabic>
          <text>저</text>
          </lyric>
        <lyric number="2" default-x="6.50" default-y="-78.34" relative-y="-30.00">
          <syllabic>single</syllabic>
          <text>저</text>
          </lyric>
        <lyric number="3" default-x="6.50" default-y="-100.08" relative-y="-30.00">
          <syllabic>single</syllabic>
          <text>저</text>
          </lyric>
        </note>
      <note default-x="228.34" default-y="-20.00">
        <pitch>
          <step>B</step>
          <octave>4</octave>
          </pitch>
        <duration>2</duration>
        <voice>1</voice>
        <type>eighth</type>
        <stem>up</stem>
        <beam number="1">end</beam>
        <lyric number="1" default-x="6.50" default-y="-56.60" relative-y="-30.00">
          <syllabic>single</syllabic>
          <text>기</text>
          </lyric>
        <lyric number="2" default-x="6.50" default-y="-78.34" relative-y="-30.00">
          <syllabic>single</syllabic>
          <text>기</text>
          </lyric>
        <lyric number="3" default-x="6.50" default-y="-100.08" relative-y="-30.00">
          <syllabic>single</syllabic>
          <text>기</text>
          </lyric>
        </note>
      </measure>
    <measure number="11" width="315.39">
      <print new-page="yes">
        <system-layout>
          <system-margins>
            <left-margin>0.00</left-margin>
            <right-margin>0.00</right-margin>
            </system-margins>
          <top-system-distance>70.00</top-system-distance>
          </system-layout>
        </print>
      <note default-x="81.12" default-y="-10.00">
        <pitch>
          <step>D</step>
          <octave>5</octave>
          </pitch>
        <duration>2</duration>
        <voice>1</voice>
        <type>eighth</type>
        <stem>down</stem>
        <beam number="1">begin</beam>
        <lyric number="1" default-x="6.50" default-y="-56.60" relative-y="-30.00">
          <syllabic>single</syllabic>
          <text>뵈</text>
          </lyric>
        <lyric number="2" default-x="6.50" default-y="-78.34" relative-y="-30.00">
          <syllabic>single</syllabic>
          <text>뵈</text>
          </lyric>
        <lyric number="3" default-x="6.50" default-y="-100.08" relative-y="-30.00">
          <syllabic>single</syllabic>
          <text>뵈</text>
          </lyric>
        </note>
      <note default-x="111.82" default-y="-10.00">
        <pitch>
          <step>D</step>
          <octave>5</octave>
          </pitch>
        <duration>2</duration>
        <voice>1</voice>
        <type>eighth</type>
        <stem>down</stem>
        <beam number="1">continue</beam>
        <lyric number="1" default-x="6.50" default-y="-56.60" relative-y="-30.00">
          <syllabic>single</syllabic>
          <text>는</text>
          </lyric>
        <lyric number="2" default-x="6.50" default-y="-78.34" relative-y="-30.00">
          <syllabic>single</syllabic>
          <text>는</text>
          </lyric>
        <lyric number="3" default-x="6.50" default-y="-100.08" relative-y="-30.00">
          <syllabic>single</syllabic>
          <text>는</text>
          </lyric>
        </note>
      <note default-x="142.51" default-y="-10.00">
        <pitch>
          <step>D</step>
          <octave>5</octave>
          </pitch>
        <duration>2</duration>
        <voice>1</voice>
        <type>eighth</type>
        <stem>down</stem>
        <beam number="1">continue</beam>
        <lyric number="1" default-x="6.50" default-y="-56.60" relative-y="-30.00">
          <syllabic>single</syllabic>
          <text>저</text>
          </lyric>
        <lyric number="2" default-x="6.50" default-y="-78.34" relative-y="-30.00">
          <syllabic>single</syllabic>
          <text>저</text>
          </lyric>
        <lyric number="3" default-x="6.50" default-y="-100.08" relative-y="-30.00">
          <syllabic>single</syllabic>
          <text>저</text>
          </lyric>
        </note>
      <note default-x="173.21" default-y="-10.00">
        <pitch>
          <step>D</step>
          <octave>5</octave>
          </pitch>
        <duration>2</duration>
        <voice>1</voice>
        <type>eighth</type>
        <stem>down</stem>
        <beam number="1">end</beam>
        <lyric number="1" default-x="6.50" default-y="-56.60" relative-y="-30.00">
          <syllabic>single</syllabic>
          <text>천</text>
          </lyric>
        <lyric number="2" default-x="6.50" default-y="-78.34" relative-y="-30.00">
          <syllabic>single</syllabic>
          <text>천</text>
          </lyric>
        <lyric number="3" default-x="6.50" default-y="-100.08" relative-y="-30.00">
          <syllabic>single</syllabic>
          <text>천</text>
          </lyric>
        </note>
      <note default-x="203.91" default-y="-10.00">
        <pitch>
          <step>D</step>
          <octave>5</octave>
          </pitch>
        <duration>4</duration>
        <voice>1</voice>
        <type>quarter</type>
        <stem>down</stem>
        <lyric number="1" default-x="6.50" default-y="-56.60" relative-y="-30.00">
          <syllabic>single</syllabic>
          <text>국</text>
          </lyric>
        <lyric number="2" default-x="6.50" default-y="-78.34" relative-y="-30.00">
          <syllabic>single</syllabic>
          <text>국</text>
          </lyric>
        <lyric number="3" default-x="6.50" default-y="-100.08" relative-y="-30.00">
          <syllabic>single</syllabic>
          <text>국</text>
          </lyric>
        </note>
      <note default-x="246.12" default-y="-15.00">
        <pitch>
          <step>C</step>
          <octave>5</octave>
          </pitch>
        <duration>3</duration>
        <voice>1</voice>
        <type>eighth</type>
        <dot />
        <stem>down</stem>
        <beam number="1">begin</beam>
        <lyric number="1" default-x="6.50" default-y="-56.60" relative-y="-30.00">
          <syllabic>single</syllabic>
          <text>문</text>
          </lyric>
        <lyric number="2" default-x="6.50" default-y="-78.34" relative-y="-30.00">
          <syllabic>single</syllabic>
          <text>문</text>
          </lyric>
        <lyric number="3" default-x="6.50" default-y="-100.08" relative-y="-30.00">
          <syllabic>single</syllabic>
          <text>문</text>
          </lyric>
        </note>
      <note default-x="283.55" default-y="-20.00">
        <pitch>
          <step>B</step>
          <octave>4</octave>
          </pitch>
        <duration>1</duration>
        <voice>1</voice>
        <type>16th</type>
        <stem>down</stem>
        <beam number="1">end</beam>
        <beam number="2">backward hook</beam>
        <lyric number="1" default-x="6.50" default-y="-56.60" relative-y="-30.00">
          <syllabic>single</syllabic>
          <text>에</text>
          </lyric>
        <lyric number="2" default-x="6.50" default-y="-78.34" relative-y="-30.00">
          <syllabic>single</syllabic>
          <text>에</text>
          </lyric>
        <lyric number="3" default-x="6.50" default-y="-100.08" relative-y="-30.00">
          <syllabic>single</syllabic>
          <text>에</text>
          </lyric>
        </note>
      </measure>
    <measure number="12" width="157.81">
      <note default-x="15.06" default-y="-25.00">
        <pitch>
          <step>A</step>
          <octave>4</octave>
          </pitch>
        <duration>12</duration>
        <voice>1</voice>
        <type>half</type>
        <dot />
        <stem>up</stem>
        <lyric number="1" default-x="6.50" default-y="-56.60" relative-y="-30.00">
          <syllabic>single</syllabic>
          <text>서</text>
          </lyric>
        <lyric number="2" default-x="6.50" default-y="-78.34" relative-y="-30.00">
          <syllabic>single</syllabic>
          <text>서</text>
          </lyric>
        <lyric number="3" default-x="6.50" default-y="-100.08" relative-y="-30.00">
          <syllabic>single</syllabic>
          <text>서</text>
          </lyric>
        </note>
      <note default-x="94.07" default-y="-55.00">
        <pitch>
          <step>B</step>
          <octave>3</octave>
          </pitch>
        <duration>2</duration>
        <voice>1</voice>
        <type>eighth</type>
        <stem>up</stem>
        <beam number="1">begin</beam>
        <lyric number="1" default-x="6.50" default-y="-56.60" relative-y="-30.00">
          <syllabic>single</syllabic>
          <text>만</text>
          </lyric>
        <lyric number="2" default-x="6.50" default-y="-78.34" relative-y="-30.00">
          <syllabic>single</syllabic>
          <text>만</text>
          </lyric>
        <lyric number="3" default-x="6.50" default-y="-100.08" relative-y="-30.00">
          <syllabic>single</syllabic>
          <text>만</text>
          </lyric>
        </note>
      <note default-x="125.04" default-y="-45.00">
        <pitch>
          <step>D</step>
          <octave>4</octave>
          </pitch>
        <duration>2</duration>
        <voice>1</voice>
        <type>eighth</type>
        <stem>up</stem>
        <beam number="1">end</beam>
        <lyric number="1" default-x="6.50" default-y="-56.60" relative-y="-30.00">
          <syllabic>single</syllabic>
          <text>나</text>
          </lyric>
        <lyric number="2" default-x="6.50" default-y="-78.34" relative-y="-30.00">
          <syllabic>single</syllabic>
          <text>나</text>
          </lyric>
        <lyric number="3" default-x="6.50" default-y="-100.08" relative-y="-30.00">
          <syllabic>single</syllabic>
          <text>나</text>
          </lyric>
        </note>
      </measure>
    <measure number="13" width="291.50">
      <note default-x="16.50" default-y="-30.00">
        <pitch>
          <step>G</step>
          <octave>4</octave>
          </pitch>
        <duration>1</duration>
        <voice>1</voice>
        <type>16th</type>
        <stem>up</stem>
        <beam number="1">begin</beam>
        <beam number="2">forward hook</beam>
        <lyric number="1" default-x="6.50" default-y="-56.60" relative-y="-30.00">
          <syllabic>single</syllabic>
          <text>보</text>
          </lyric>
        <lyric number="2" default-x="6.50" default-y="-78.34" relative-y="-30.00">
          <syllabic>single</syllabic>
          <text>보</text>
          </lyric>
        <lyric number="3" default-x="6.50" default-y="-100.08" relative-y="-30.00">
          <syllabic>single</syllabic>
          <text>보</text>
          </lyric>
        </note>
      <note default-x="38.71" default-y="-30.00">
        <pitch>
          <step>G</step>
          <octave>4</octave>
          </pitch>
        <duration>3</duration>
        <voice>1</voice>
        <type>eighth</type>
        <dot />
        <stem>up</stem>
        <beam number="1">end</beam>
        <lyric number="1" default-x="6.50" default-y="-56.60" relative-y="-30.00">
          <syllabic>single</syllabic>
          <text>자</text>
          </lyric>
        <lyric number="2" default-x="6.50" default-y="-78.34" relative-y="-30.00">
          <syllabic>single</syllabic>
          <text>자</text>
          </lyric>
        <lyric number="3" default-x="6.50" default-y="-100.08" relative-y="-30.00">
          <syllabic>single</syllabic>
          <text>자</text>
          </lyric>
        </note>
      <note>
        <rest />
        <duration>4</duration>
        <voice>1</voice>
        <type>quarter</type>
        </note>
      <note>
        <rest />
        <duration>4</duration>
        <voice>1</voice>
        <type>quarter</type>
        </note>
      <note default-x="218.64" default-y="-45.00">
        <pitch>
          <step>D</step>
          <octave>4</octave>
          </pitch>
        <duration>2</duration>
        <voice>1</voice>
        <type>eighth</type>
        <stem>up</stem>
        <beam number="1">begin</beam>
        <lyric number="1" default-x="6.50" default-y="-56.60" relative-y="-30.00">
          <syllabic>single</syllabic>
          <text>만</text>
          </lyric>
        <lyric number="2" default-x="6.50" default-y="-78.34" relative-y="-30.00">
          <syllabic>single</syllabic>
          <text>만</text>
          </lyric>
        <lyric number="3" default-x="6.50" default-y="-100.08" relative-y="-30.00">
          <syllabic>single</syllabic>
          <text>만</text>
          </lyric>
        </note>
      <note default-x="254.17" default-y="-30.00">
        <pitch>
          <step>G</step>
          <octave>4</octave>
          </pitch>
        <duration>2</duration>
        <voice>1</voice>
        <type>eighth</type>
        <stem>up</stem>
        <beam number="1">end</beam>
        <lyric number="1" default-x="6.50" default-y="-56.60" relative-y="-30.00">
          <syllabic>single</syllabic>
          <text>나</text>
          </lyric>
        <lyric number="2" default-x="6.50" default-y="-78.34" relative-y="-30.00">
          <syllabic>single</syllabic>
          <text>나</text>
          </lyric>
        <lyric number="3" default-x="6.50" default-y="-100.08" relative-y="-30.00">
          <syllabic>single</syllabic>
          <text>나</text>
          </lyric>
        </note>
      </measure>
    <measure number="14" width="264.01">
      <note default-x="15.70" default-y="-20.00">
        <pitch>
          <step>B</step>
          <octave>4</octave>
          </pitch>
        <duration>1</duration>
        <voice>1</voice>
        <type>16th</type>
        <stem>down</stem>
        <beam number="1">begin</beam>
        <beam number="2">forward hook</beam>
        <lyric number="1" default-x="6.50" default-y="-56.60" relative-y="-30.00">
          <syllabic>single</syllabic>
          <text>보</text>
          </lyric>
        <lyric number="2" default-x="6.50" default-y="-78.34" relative-y="-30.00">
          <syllabic>single</syllabic>
          <text>보</text>
          </lyric>
        <lyric number="3" default-x="6.50" default-y="-100.08" relative-y="-30.00">
          <syllabic>single</syllabic>
          <text>보</text>
          </lyric>
        </note>
      <note default-x="36.54" default-y="-20.00">
        <pitch>
          <step>B</step>
          <octave>4</octave>
          </pitch>
        <duration>3</duration>
        <voice>1</voice>
        <type>eighth</type>
        <dot />
        <stem>down</stem>
        <beam number="1">end</beam>
        <lyric number="1" default-x="6.50" default-y="-56.60" relative-y="-30.00">
          <syllabic>single</syllabic>
          <text>자</text>
          </lyric>
        <lyric number="2" default-x="6.50" default-y="-78.34" relative-y="-30.00">
          <syllabic>single</syllabic>
          <text>자</text>
          </lyric>
        <lyric number="3" default-x="6.50" default-y="-100.08" relative-y="-30.00">
          <syllabic>single</syllabic>
          <text>자</text>
          </lyric>
        </note>
      <note>
        <rest />
        <duration>4</duration>
        <voice>1</voice>
        <type>quarter</type>
        </note>
      <note>
        <rest />
        <duration>4</duration>
        <voice>1</voice>
        <type>quarter</type>
        </note>
      <note default-x="198.31" default-y="-30.00">
        <pitch>
          <step>G</step>
          <octave>4</octave>
          </pitch>
        <duration>2</duration>
        <voice>1</voice>
        <type>eighth</type>
        <stem>up</stem>
        <beam number="1">begin</beam>
        <lyric number="1" default-x="6.50" default-y="-56.60" relative-y="-30.00">
          <syllabic>single</syllabic>
          <text>그</text>
          </lyric>
        <lyric number="2" default-x="6.50" default-y="-78.34" relative-y="-30.00">
          <syllabic>single</syllabic>
          <text>그</text>
          </lyric>
        <lyric number="3" default-x="6.50" default-y="-100.08" relative-y="-30.00">
          <syllabic>single</syllabic>
          <text>그</text>
          </lyric>
        </note>
      <note default-x="230.26" default-y="-20.00">
        <pitch>
          <step>B</step>
          <octave>4</octave>
          </pitch>
        <duration>2</duration>
        <voice>1</voice>
        <type>eighth</type>
        <stem>up</stem>
        <beam number="1">end</beam>
        <lyric number="1" default-x="6.50" default-y="-56.60" relative-y="-30.00">
          <syllabic>single</syllabic>
          <text>날</text>
          </lyric>
        <lyric number="2" default-x="6.50" default-y="-78.34" relative-y="-30.00">
          <syllabic>single</syllabic>
          <text>날</text>
          </lyric>
        <lyric number="3" default-x="6.50" default-y="-100.08" relative-y="-30.00">
          <syllabic>single</syllabic>
          <text>날</text>
          </lyric>
        </note>
      </measure>
    <measure number="15" width="619.01">
      <print new-system="yes">
        <system-layout>
          <system-margins>
            <left-margin>0.00</left-margin>
            <right-margin>0.00</right-margin>
            </system-margins>
          <system-distance>150.00</system-distance>
          </system-layout>
        </print>
      <note default-x="81.12" default-y="-10.00">
        <pitch>
          <step>D</step>
          <octave>5</octave>
          </pitch>
        <duration>1</duration>
        <voice>1</voice>
        <type>16th</type>
        <stem>down</stem>
        <beam number="1">begin</beam>
        <beam number="2">forward hook</beam>
        <lyric number="1" default-x="6.50" default-y="-49.02" relative-y="-30.00">
          <syllabic>single</syllabic>
          <text>아</text>
          </lyric>
        <lyric number="2" default-x="6.50" default-y="-70.76" relative-y="-30.00">
          <syllabic>single</syllabic>
          <text>아</text>
          </lyric>
        <lyric number="3" default-x="6.50" default-y="-92.49" relative-y="-30.00">
          <syllabic>single</syllabic>
          <text>아</text>
          </lyric>
        </note>
      <note default-x="124.70" default-y="-10.00">
        <pitch>
          <step>D</step>
          <octave>5</octave>
          </pitch>
        <duration>3</duration>
        <voice>1</voice>
        <type>eighth</type>
        <dot />
        <stem>down</stem>
        <beam number="1">end</beam>
        <lyric number="1" default-x="6.50" default-y="-49.02" relative-y="-30.00">
          <syllabic>single</syllabic>
          <text>침</text>
          </lyric>
        <lyric number="2" default-x="6.50" default-y="-70.76" relative-y="-30.00">
          <syllabic>single</syllabic>
          <text>침</text>
          </lyric>
        <lyric number="3" default-x="6.50" default-y="-92.49" relative-y="-30.00">
          <syllabic>single</syllabic>
          <text>침</text>
          </lyric>
        </note>
      <note default-x="209.72" default-y="-10.00">
        <pitch>
          <step>D</step>
          <octave>5</octave>
          </pitch>
        <duration>2</duration>
        <voice>1</voice>
        <type>eighth</type>
        <stem>down</stem>
        <beam number="1">begin</beam>
        <lyric number="1" default-x="6.50" default-y="-49.02" relative-y="-30.00">
          <syllabic>single</syllabic>
          <text>그</text>
          </lyric>
        <lyric number="2" default-x="6.50" default-y="-70.76" relative-y="-30.00">
          <syllabic>single</syllabic>
          <text>그</text>
          </lyric>
        <lyric number="3" default-x="6.50" default-y="-92.49" relative-y="-30.00">
          <syllabic>single</syllabic>
          <text>그</text>
          </lyric>
        </note>
      <note default-x="279.44" default-y="-10.00">
        <pitch>
          <step>D</step>
          <octave>5</octave>
          </pitch>
        <duration>2</duration>
        <voice>1</voice>
        <type>eighth</type>
        <stem>down</stem>
        <beam number="1">end</beam>
        <lyric number="1" default-x="6.50" default-y="-49.02" relative-y="-30.00">
          <syllabic>single</syllabic>
          <text>문</text>
          </lyric>
        <lyric number="2" default-x="6.50" default-y="-70.76" relative-y="-30.00">
          <syllabic>single</syllabic>
          <text>문</text>
          </lyric>
        <lyric number="3" default-x="6.50" default-y="-92.49" relative-y="-30.00">
          <syllabic>single</syllabic>
          <text>문</text>
          </lyric>
        </note>
      <note default-x="349.17" default-y="-10.00">
        <pitch>
          <step>D</step>
          <octave>5</octave>
          </pitch>
        <duration>1</duration>
        <voice>1</voice>
        <type>16th</type>
        <stem>down</stem>
        <beam number="1">begin</beam>
        <beam number="2">forward hook</beam>
        <lyric number="1" default-x="6.50" default-y="-49.02" relative-y="-30.00">
          <syllabic>single</syllabic>
          <text>에</text>
          </lyric>
        <lyric number="2" default-x="6.50" default-y="-70.76" relative-y="-30.00">
          <syllabic>single</syllabic>
          <text>에</text>
          </lyric>
        <lyric number="3" default-x="6.50" default-y="-92.49" relative-y="-30.00">
          <syllabic>single</syllabic>
          <text>에</text>
          </lyric>
        </note>
      <note default-x="392.74" default-y="-20.00">
        <pitch>
          <step>B</step>
          <octave>4</octave>
          </pitch>
        <duration>3</duration>
        <voice>1</voice>
        <type>eighth</type>
        <dot />
        <stem>down</stem>
        <beam number="1">end</beam>
        <lyric number="1" default-x="6.50" default-y="-49.02" relative-y="-30.00">
          <syllabic>single</syllabic>
          <text>서</text>
          </lyric>
        <lyric number="2" default-x="6.50" default-y="-70.76" relative-y="-30.00">
          <syllabic>single</syllabic>
          <text>서</text>
          </lyric>
        <lyric number="3" default-x="6.50" default-y="-92.49" relative-y="-30.00">
          <syllabic>single</syllabic>
          <text>서</text>
          </lyric>
        </note>
      <note default-x="477.76" default-y="-25.00">
        <pitch>
          <step>A</step>
          <octave>4</octave>
          </pitch>
        <duration>2</duration>
        <voice>1</voice>
        <type>eighth</type>
        <stem>up</stem>
        <beam number="1">begin</beam>
        <lyric number="1" default-x="6.50" default-y="-49.02" relative-y="-30.00">
          <syllabic>single</syllabic>
          <text>만</text>
          </lyric>
        <lyric number="2" default-x="6.50" default-y="-70.76" relative-y="-30.00">
          <syllabic>single</syllabic>
          <text>만</text>
          </lyric>
        <lyric number="3" default-x="6.50" default-y="-92.49" relative-y="-30.00">
          <syllabic>single</syllabic>
          <text>만</text>
          </lyric>
        </note>
      <note default-x="547.49" default-y="-20.00">
        <pitch>
          <step>B</step>
          <octave>4</octave>
          </pitch>
        <duration>2</duration>
        <voice>1</voice>
        <type>eighth</type>
        <stem>up</stem>
        <beam number="1">end</beam>
        <lyric number="1" default-x="6.50" default-y="-49.02" relative-y="-30.00">
          <syllabic>single</syllabic>
          <text>나</text>
          </lyric>
        <lyric number="2" default-x="6.50" default-y="-70.76" relative-y="-30.00">
          <syllabic>single</syllabic>
          <text>나</text>
          </lyric>
        <lyric number="3" default-x="6.50" default-y="-92.49" relative-y="-30.00">
          <syllabic>single</syllabic>
          <text>나</text>
          </lyric>
        </note>
      </measure>
    <measure number="16" width="409.69">
      <note default-x="16.14" default-y="-30.00">
        <pitch>
          <step>G</step>
          <octave>4</octave>
          </pitch>
        <duration>12</duration>
        <voice>1</voice>
        <type>half</type>
        <dot />
        <stem>up</stem>
        <lyric number="1" default-x="6.50" default-y="-49.02" relative-y="-30.00">
          <syllabic>single</syllabic>
          <text>자</text>
          </lyric>
        <lyric number="2" default-x="6.50" default-y="-70.76" relative-y="-30.00">
          <syllabic>single</syllabic>
          <text>자</text>
          </lyric>
        <lyric number="3" default-x="6.50" default-y="-92.49" relative-y="-30.00">
          <syllabic>single</syllabic>
          <text>자</text>
          </lyric>
        </note>
      <note>
        <rest />
        <duration>4</duration>
        <voice>1</voice>
        <type>quarter</type>
        </note>
      <barline location="right">
        <bar-style>light-heavy</bar-style>
        </barline>
      </measure>
    </part>
  </score-partwise>