<?xml version="1.0" encoding="UTF-8"?><!DOCTYPE score-partwise PUBLIC "-//Recordare//DTD MusicXML 3.1 Partwise//EN" "http://www.musicxml.org/dtds/partwise.dtd">
<score-partwise version="3.1">
  <movement-title>617장 주님을 찬양합니다</movement-title>
  <identification>
    <creator type="composer">백효죽</creator>
    <creator type="poet">Anonymous</creator>
    <rights>Copyright 2022 David Sung</rights>
    <encoding>
      <software>MuseScore 3.6.2</software>
      <encoding-date>2022-03-15</encoding-date>
      <supports element="accidental" type="yes" />
      <supports element="beam" type="yes" />
      <supports element="print" attribute="new-page" type="yes" value="yes" />
      <supports element="print" attribute="new-system" type="yes" value="yes" />
      <supports element="stem" type="yes" />
      </encoding>
    </identification>
  <defaults>
    <scaling>
      <millimeters>6.99911</millimeters>
      <tenths>40</tenths>
      </scaling>
    <page-layout>
      <page-height>1697.36</page-height>
      <page-width>1200.15</page-width>
      <page-margins type="even">
        <left-margin>85.7252</left-margin>
        <right-margin>85.7252</right-margin>
        <top-margin>85.7252</top-margin>
        <bottom-margin>85.7252</bottom-margin>
        </page-margins>
      <page-margins type="odd">
        <left-margin>85.7252</left-margin>
        <right-margin>85.7252</right-margin>
        <top-margin>85.7252</top-margin>
        <bottom-margin>85.7252</bottom-margin>
        </page-margins>
      </page-layout>
    <word-font font-family="Edwin" font-size="10" />
    <lyric-font font-family="Edwin" font-size="10" />
    </defaults>
  <credit page="1">
    <credit-type>title</credit-type>
    <credit-words default-x="600.076" default-y="1611.63" justify="center" valign="top" font-size="22">617장 주님을 찬양합니다</credit-words>
    </credit>
  <credit page="1">
    <credit-type>composer</credit-type>
    <credit-words default-x="1114.43" default-y="1511.63" justify="right" valign="bottom">백효죽</credit-words>
    </credit>
  <credit page="1">
    <credit-type>lyricist</credit-type>
    <credit-words default-x="85.7252" default-y="1511.63" justify="left" valign="bottom">Anonymous</credit-words>
    </credit>
  <credit page="1">
    <credit-type>rights</credit-type>
    <credit-words default-x="600.076" default-y="85.7252" justify="center" valign="bottom" font-size="9">Copyright 2022 David Sung</credit-words>
    </credit>
  <credit page="2">
    <credit-type>rights</credit-type>
    <credit-words default-x="600.076" default-y="85.7252" justify="center" valign="bottom" font-size="9">Copyright 2022 David Sung</credit-words>
    </credit>
  <part-list>
    <score-part id="P1">
      <part-name>S</part-name>
      <score-instrument id="P1-I1">
        <instrument-name />
        </score-instrument>
      <midi-device id="P1-I1" port="1" />
      <midi-instrument id="P1-I1">
        <midi-channel>1</midi-channel>
        <midi-program>1</midi-program>
        <volume>78.7402</volume>
        <pan>0</pan>
        </midi-instrument>
      </score-part>
    </part-list>
  <part id="P1">
    <measure number="1" width="217.26">
      <print>
        <system-layout>
          <system-margins>
            <left-margin>50.00</left-margin>
            <right-margin>0.00</right-margin>
            </system-margins>
          <top-system-distance>170.00</top-system-distance>
          </system-layout>
        </print>
      <attributes>
        <divisions>2</divisions>
        <key>
          <fifths>-1</fifths>
          <mode>major</mode>
          </key>
        <time>
          <beats>4</beats>
          <beat-type>4</beat-type>
          </time>
        <clef>
          <sign>G</sign>
          <line>2</line>
          </clef>
        </attributes>
      <direction placement="above">
        <direction-type>
          <metronome parentheses="no" default-x="-41.18" relative-y="20.00">
            <beat-unit>quarter</beat-unit>
            <per-minute>90</per-minute>
            </metronome>
          </direction-type>
        <sound tempo="90" />
        </direction>
      <note default-x="105.11" default-y="-50.00">
        <pitch>
          <step>C</step>
          <octave>4</octave>
          </pitch>
        <duration>1</duration>
        <voice>1</voice>
        <type>eighth</type>
        <stem>up</stem>
        <lyric number="1" default-x="-14.79" default-y="-51.75" relative-y="-30.00">
          <syllabic>single</syllabic>
          <text>1.주</text>
          </lyric>
        <lyric number="2" default-x="-16.10" default-y="-73.49" relative-y="-30.00">
          <syllabic>single</syllabic>
          <text>2.주</text>
          </lyric>
        </note>
      <note default-x="140.51" default-y="-35.00">
        <pitch>
          <step>F</step>
          <octave>4</octave>
          </pitch>
        <duration>1</duration>
        <voice>1</voice>
        <type>eighth</type>
        <stem>up</stem>
        <lyric number="1" default-x="6.50" default-y="-51.75" relative-y="-30.00">
          <syllabic>single</syllabic>
          <text>님</text>
          </lyric>
        <lyric number="2" default-x="6.50" default-y="-73.49" relative-y="-30.00">
          <syllabic>single</syllabic>
          <text>님</text>
          </lyric>
        </note>
      <note default-x="175.91" default-y="-30.00">
        <pitch>
          <step>G</step>
          <octave>4</octave>
          </pitch>
        <duration>1</duration>
        <voice>1</voice>
        <type>eighth</type>
        <stem>up</stem>
        <lyric number="1" default-x="6.50" default-y="-51.75" relative-y="-30.00">
          <syllabic>single</syllabic>
          <text>을</text>
          </lyric>
        <lyric number="2" default-x="6.50" default-y="-73.49" relative-y="-30.00">
          <syllabic>single</syllabic>
          <text>을</text>
          </lyric>
        </note>
      </measure>
    <measure number="2" width="181.60">
      <note default-x="16.50" default-y="-20.00">
        <pitch>
          <step>B</step>
          <alter>-1</alter>
          <octave>4</octave>
          </pitch>
        <duration>2</duration>
        <voice>1</voice>
        <type>quarter</type>
        <stem>down</stem>
        <lyric number="1" default-x="6.50" default-y="-51.75" relative-y="-30.00">
          <syllabic>single</syllabic>
          <text>찬</text>
          </lyric>
        <lyric number="2" default-x="6.50" default-y="-73.49" relative-y="-30.00">
          <syllabic>single</syllabic>
          <text>경</text>
          </lyric>
        </note>
      <note default-x="50.64" default-y="-25.00">
        <pitch>
          <step>A</step>
          <octave>4</octave>
          </pitch>
        <duration>2</duration>
        <voice>1</voice>
        <type>quarter</type>
        <stem>up</stem>
        <lyric number="1" default-x="6.50" default-y="-51.75" relative-y="-30.00">
          <syllabic>single</syllabic>
          <text>양</text>
          </lyric>
        <lyric number="2" default-x="6.50" default-y="-73.49" relative-y="-30.00">
          <syllabic>single</syllabic>
          <text>배</text>
          </lyric>
        </note>
      <note default-x="84.77" default-y="-30.00">
        <pitch>
          <step>G</step>
          <octave>4</octave>
          </pitch>
        <duration>3</duration>
        <voice>1</voice>
        <type>quarter</type>
        <dot />
        <stem>up</stem>
        <lyric number="1" default-x="6.50" default-y="-51.75" relative-y="-30.00">
          <syllabic>single</syllabic>
          <text>합</text>
          </lyric>
        <lyric number="2" default-x="6.50" default-y="-73.49" relative-y="-30.00">
          <syllabic>single</syllabic>
          <text>합</text>
          </lyric>
        </note>
      <note default-x="140.24" default-y="-35.00">
        <pitch>
          <step>F</step>
          <octave>4</octave>
          </pitch>
        <duration>1</duration>
        <voice>1</voice>
        <type>eighth</type>
        <stem>up</stem>
        <lyric number="1" default-x="6.50" default-y="-51.75" relative-y="-30.00">
          <syllabic>single</syllabic>
          <text>니</text>
          </lyric>
        <lyric number="2" default-x="6.50" default-y="-73.49" relative-y="-30.00">
          <syllabic>single</syllabic>
          <text>니</text>
          </lyric>
        </note>
      </measure>
    <measure number="3" width="194.13">
      <note default-x="16.50" default-y="-35.00">
        <pitch>
          <step>F</step>
          <octave>4</octave>
          </pitch>
        <duration>4</duration>
        <voice>1</voice>
        <type>half</type>
        <stem>up</stem>
        <lyric number="1" default-x="6.50" default-y="-51.75" relative-y="-30.00">
          <syllabic>single</syllabic>
          <text>다</text>
          </lyric>
        <lyric number="2" default-x="6.50" default-y="-73.49" relative-y="-30.00">
          <syllabic>single</syllabic>
          <text>다</text>
          </lyric>
        </note>
      <note>
        <rest />
        <duration>1</duration>
        <voice>1</voice>
        <type>eighth</type>
        </note>
      <note default-x="99.66" default-y="-35.00">
        <pitch>
          <step>F</step>
          <octave>4</octave>
          </pitch>
        <duration>1</duration>
        <voice>1</voice>
        <type>eighth</type>
        <stem>up</stem>
        <lyric number="1" default-x="6.50" default-y="-51.75" relative-y="-30.00">
          <syllabic>single</syllabic>
          <text>내</text>
          </lyric>
        <lyric number="2" default-x="6.50" default-y="-73.49" relative-y="-30.00">
          <syllabic>single</syllabic>
          <text>내</text>
          </lyric>
        </note>
      <note default-x="126.21" default-y="-25.00">
        <pitch>
          <step>A</step>
          <octave>4</octave>
          </pitch>
        <duration>1</duration>
        <voice>1</voice>
        <type>eighth</type>
        <stem>up</stem>
        <lyric number="1" default-x="6.50" default-y="-51.75" relative-y="-30.00">
          <syllabic>single</syllabic>
          <text>맘</text>
          </lyric>
        <lyric number="2" default-x="6.50" default-y="-73.49" relative-y="-30.00">
          <syllabic>single</syllabic>
          <text>맘</text>
          </lyric>
        </note>
      <note default-x="152.77" default-y="-20.00">
        <pitch>
          <step>B</step>
          <alter>-1</alter>
          <octave>4</octave>
          </pitch>
        <duration>1</duration>
        <voice>1</voice>
        <type>eighth</type>
        <stem>down</stem>
        <lyric number="1" default-x="6.50" default-y="-51.75" relative-y="-30.00">
          <syllabic>single</syllabic>
          <text>과</text>
          </lyric>
        <lyric number="2" default-x="6.50" default-y="-73.49" relative-y="-30.00">
          <syllabic>single</syllabic>
          <text>과</text>
          </lyric>
        </note>
      </measure>
    <measure number="4" width="191.58">
      <note default-x="16.50" default-y="-15.00">
        <pitch>
          <step>C</step>
          <octave>5</octave>
          </pitch>
        <duration>2</duration>
        <voice>1</voice>
        <type>quarter</type>
        <stem>down</stem>
        <lyric number="1" default-x="6.50" default-y="-51.75" relative-y="-30.00">
          <syllabic>single</syllabic>
          <text>정</text>
          </lyric>
        <lyric number="2" default-x="6.50" default-y="-73.49" relative-y="-30.00">
          <syllabic>single</syllabic>
          <text>정</text>
          </lyric>
        </note>
      <note default-x="53.39" default-y="-15.00">
        <pitch>
          <step>C</step>
          <octave>5</octave>
          </pitch>
        <duration>2</duration>
        <voice>1</voice>
        <type>quarter</type>
        <stem>down</stem>
        <lyric number="1" default-x="6.50" default-y="-51.75" relative-y="-30.00">
          <syllabic>single</syllabic>
          <text>성</text>
          </lyric>
        <lyric number="2" default-x="6.50" default-y="-73.49" relative-y="-30.00">
          <syllabic>single</syllabic>
          <text>성</text>
          </lyric>
        </note>
      <note default-x="90.28" default-y="-20.00">
        <pitch>
          <step>B</step>
          <alter>-1</alter>
          <octave>4</octave>
          </pitch>
        <duration>3</duration>
        <voice>1</voice>
        <type>quarter</type>
        <dot />
        <stem>down</stem>
        <lyric number="1" default-x="6.50" default-y="-51.75" relative-y="-30.00">
          <syllabic>single</syllabic>
          <text>다</text>
          </lyric>
        <lyric number="2" default-x="6.50" default-y="-73.49" relative-y="-30.00">
          <syllabic>single</syllabic>
          <text>다</text>
          </lyric>
        </note>
      <note default-x="150.23" default-y="-25.00">
        <pitch>
          <step>A</step>
          <octave>4</octave>
          </pitch>
        <duration>1</duration>
        <voice>1</voice>
        <type>eighth</type>
        <stem>up</stem>
        <lyric number="1" default-x="6.50" default-y="-51.75" relative-y="-30.00">
          <syllabic>single</syllabic>
          <text>하</text>
          </lyric>
        <lyric number="2" default-x="6.50" default-y="-73.49" relative-y="-30.00">
          <syllabic>single</syllabic>
          <text>하</text>
          </lyric>
        </note>
      </measure>
    <measure number="5" width="194.13">
      <note default-x="16.50" default-y="-25.00">
        <pitch>
          <step>A</step>
          <octave>4</octave>
          </pitch>
        <duration>4</duration>
        <voice>1</voice>
        <type>half</type>
        <stem>up</stem>
        <lyric number="1" default-x="6.50" default-y="-51.75" relative-y="-30.00">
          <syllabic>single</syllabic>
          <text>여</text>
          </lyric>
        <lyric number="2" default-x="6.50" default-y="-73.49" relative-y="-30.00">
          <syllabic>single</syllabic>
          <text>여</text>
          </lyric>
        </note>
      <note>
        <rest />
        <duration>1</duration>
        <voice>1</voice>
        <type>eighth</type>
        </note>
      <note default-x="99.66" default-y="-15.00">
        <pitch>
          <step>C</step>
          <octave>5</octave>
          </pitch>
        <duration>1</duration>
        <voice>1</voice>
        <type>eighth</type>
        <stem>down</stem>
        <lyric number="1" default-x="6.50" default-y="-51.75" relative-y="-30.00">
          <syllabic>single</syllabic>
          <text>놀</text>
          </lyric>
        <lyric number="2" default-x="6.50" default-y="-73.49" relative-y="-30.00">
          <syllabic>single</syllabic>
          <text>놀</text>
          </lyric>
        </note>
      <note default-x="126.21" default-y="-15.00">
        <pitch>
          <step>C</step>
          <octave>5</octave>
          </pitch>
        <duration>1</duration>
        <voice>1</voice>
        <type>eighth</type>
        <stem>down</stem>
        <lyric number="1" default-x="6.50" default-y="-51.75" relative-y="-30.00">
          <syllabic>single</syllabic>
          <text>라</text>
          </lyric>
        <lyric number="2" default-x="6.50" default-y="-73.49" relative-y="-30.00">
          <syllabic>single</syllabic>
          <text>라</text>
          </lyric>
        </note>
      <note default-x="152.77" default-y="-20.00">
        <pitch>
          <step>B</step>
          <alter>-1</alter>
          <octave>4</octave>
          </pitch>
        <duration>1</duration>
        <voice>1</voice>
        <type>eighth</type>
        <stem>down</stem>
        <lyric number="1" default-x="6.50" default-y="-51.75" relative-y="-30.00">
          <syllabic>single</syllabic>
          <text>우</text>
          </lyric>
        <lyric number="2" default-x="6.50" default-y="-73.49" relative-y="-30.00">
          <syllabic>single</syllabic>
          <text>우</text>
          </lyric>
        </note>
      </measure>
    <measure number="6" width="231.35">
      <print new-system="yes">
        <system-layout>
          <system-margins>
            <left-margin>0.00</left-margin>
            <right-margin>0.00</right-margin>
            </system-margins>
          <system-distance>150.00</system-distance>
          </system-layout>
        </print>
      <note default-x="79.48" default-y="-25.00">
        <pitch>
          <step>A</step>
          <octave>4</octave>
          </pitch>
        <duration>4</duration>
        <voice>1</voice>
        <type>half</type>
        <stem>up</stem>
        <lyric number="1" default-x="6.50" default-y="-51.75" relative-y="-30.00">
          <syllabic>single</syllabic>
          <text>신</text>
          </lyric>
        <lyric number="2" default-x="6.50" default-y="-73.49" relative-y="-30.00">
          <syllabic>single</syllabic>
          <text>신</text>
          </lyric>
        </note>
      <note>
        <rest />
        <duration>1</duration>
        <voice>1</voice>
        <type>eighth</type>
        </note>
      <note default-x="136.88" default-y="-25.00">
        <pitch>
          <step>A</step>
          <octave>4</octave>
          </pitch>
        <duration>1</duration>
        <voice>1</voice>
        <type>eighth</type>
        <stem>up</stem>
        <lyric number="1" default-x="6.50" default-y="-51.75" relative-y="-30.00">
          <syllabic>single</syllabic>
          <text>주</text>
          </lyric>
        <lyric number="2" default-x="6.50" default-y="-73.49" relative-y="-30.00">
          <syllabic>single</syllabic>
          <text>주</text>
          </lyric>
        </note>
      <note default-x="163.44" default-y="-30.00">
        <pitch>
          <step>G</step>
          <octave>4</octave>
          </pitch>
        <duration>1</duration>
        <voice>1</voice>
        <type>eighth</type>
        <stem>up</stem>
        <lyric number="1" default-x="6.50" default-y="-51.75" relative-y="-30.00">
          <syllabic>single</syllabic>
          <text>님</text>
          </lyric>
        <lyric number="2" default-x="6.50" default-y="-73.49" relative-y="-30.00">
          <syllabic>single</syllabic>
          <text>님</text>
          </lyric>
        </note>
      <note default-x="189.99" default-y="-35.00">
        <pitch>
          <step>F</step>
          <octave>4</octave>
          </pitch>
        <duration>1</duration>
        <voice>1</voice>
        <type>eighth</type>
        <stem>up</stem>
        <lyric number="1" default-x="6.50" default-y="-51.75" relative-y="-30.00">
          <syllabic>single</syllabic>
          <text>의</text>
          </lyric>
        <lyric number="2" default-x="6.50" default-y="-73.49" relative-y="-30.00">
          <syllabic>single</syllabic>
          <text>의</text>
          </lyric>
        </note>
      </measure>
    <measure number="7" width="139.72">
      <note default-x="16.50" default-y="-45.00">
        <pitch>
          <step>D</step>
          <octave>4</octave>
          </pitch>
        <duration>2</duration>
        <voice>1</voice>
        <type>quarter</type>
        <stem>up</stem>
        <lyric number="1" default-x="6.50" default-y="-51.75" relative-y="-30.00">
          <syllabic>single</syllabic>
          <text>크</text>
          </lyric>
        <lyric number="2" default-x="6.50" default-y="-73.49" relative-y="-30.00">
          <syllabic>single</syllabic>
          <text>크</text>
          </lyric>
        </note>
      <note default-x="44.74" default-y="-35.00">
        <pitch>
          <step>F</step>
          <octave>4</octave>
          </pitch>
        <duration>2</duration>
        <voice>1</voice>
        <type>quarter</type>
        <stem>up</stem>
        <lyric number="1" default-x="6.50" default-y="-51.75" relative-y="-30.00">
          <syllabic>single</syllabic>
          <text>신</text>
          </lyric>
        <lyric number="2" default-x="6.50" default-y="-73.49" relative-y="-30.00">
          <syllabic>single</syllabic>
          <text>신</text>
          </lyric>
        </note>
      <note default-x="80.05" default-y="-20.00">
        <pitch>
          <step>B</step>
          <alter>-1</alter>
          <octave>4</octave>
          </pitch>
        <duration>2</duration>
        <voice>1</voice>
        <type>quarter</type>
        <stem>down</stem>
        <lyric number="1" default-x="6.50" default-y="-51.75" relative-y="-30.00">
          <syllabic>single</syllabic>
          <text>능</text>
          </lyric>
        <lyric number="2" default-x="6.50" default-y="-73.49" relative-y="-30.00">
          <syllabic>single</syllabic>
          <text>능</text>
          </lyric>
        </note>
      <note default-x="108.29" default-y="-10.00">
        <pitch>
          <step>D</step>
          <octave>5</octave>
          </pitch>
        <duration>2</duration>
        <voice>1</voice>
        <type>quarter</type>
        <stem>down</stem>
        <lyric number="1" default-x="6.50" default-y="-51.75" relative-y="-30.00">
          <syllabic>single</syllabic>
          <text>력</text>
          </lyric>
        <lyric number="2" default-x="6.50" default-y="-73.49" relative-y="-30.00">
          <syllabic>single</syllabic>
          <text>력</text>
          </lyric>
        </note>
      </measure>
    <measure number="8" width="165.05">
      <note default-x="16.00" default-y="-15.00">
        <pitch>
          <step>C</step>
          <octave>5</octave>
          </pitch>
        <duration>2</duration>
        <voice>1</voice>
        <type>quarter</type>
        <stem>down</stem>
        <lyric number="1" default-x="6.50" default-y="-51.75" relative-y="-30.00">
          <syllabic>single</syllabic>
          <text>찬</text>
          </lyric>
        <lyric number="2" default-x="6.50" default-y="-73.49" relative-y="-30.00">
          <syllabic>single</syllabic>
          <text>경</text>
          </lyric>
        </note>
      <note default-x="43.79" default-y="-20.00">
        <pitch>
          <step>B</step>
          <alter>-1</alter>
          <octave>4</octave>
          </pitch>
        <duration>1</duration>
        <voice>1</voice>
        <type>eighth</type>
        <stem>up</stem>
        <beam number="1">begin</beam>
        <lyric number="1" default-x="6.50" default-y="-51.75" relative-y="-30.00">
          <syllabic>single</syllabic>
          <text>양</text>
          </lyric>
        <lyric number="2" default-x="6.50" default-y="-73.49" relative-y="-30.00">
          <syllabic>single</syllabic>
          <text>배</text>
          </lyric>
        </note>
      <note default-x="61.16" default-y="-25.00">
        <pitch>
          <step>A</step>
          <octave>4</octave>
          </pitch>
        <duration>1</duration>
        <voice>1</voice>
        <type>eighth</type>
        <stem>up</stem>
        <beam number="1">end</beam>
        </note>
      <note default-x="78.53" default-y="-30.00">
        <pitch>
          <step>G</step>
          <octave>4</octave>
          </pitch>
        <duration>3</duration>
        <voice>1</voice>
        <type>quarter</type>
        <dot />
        <stem>up</stem>
        <lyric number="1" default-x="6.50" default-y="-51.75" relative-y="-30.00">
          <syllabic>single</syllabic>
          <text>하</text>
          </lyric>
        <lyric number="2" default-x="6.50" default-y="-73.49" relative-y="-30.00">
          <syllabic>single</syllabic>
          <text>합</text>
          </lyric>
        </note>
      <note default-x="123.69" default-y="-35.00">
        <pitch>
          <step>F</step>
          <octave>4</octave>
          </pitch>
        <duration>1</duration>
        <voice>1</voice>
        <type>eighth</type>
        <stem>up</stem>
        <lyric number="1" default-x="6.50" default-y="-51.75" relative-y="-30.00">
          <syllabic>single</syllabic>
          <text>리</text>
          </lyric>
        <lyric number="2" default-x="6.50" default-y="-73.49" relative-y="-30.00">
          <syllabic>single</syllabic>
          <text>니</text>
          </lyric>
        </note>
      </measure>
    <measure number="9" width="168.37">
      <note default-x="16.50" default-y="-35.00">
        <pitch>
          <step>F</step>
          <octave>4</octave>
          </pitch>
        <duration>4</duration>
        <voice>1</voice>
        <type>half</type>
        <stem>up</stem>
        <lyric number="1" default-x="6.50" default-y="-51.75" relative-y="-30.00">
          <syllabic>single</syllabic>
          <text>라</text>
          </lyric>
        <lyric number="2" default-x="6.50" default-y="-73.49" relative-y="-30.00">
          <syllabic>single</syllabic>
          <text>다</text>
          </lyric>
        </note>
      <note>
        <rest />
        <duration>1</duration>
        <voice>1</voice>
        <type>eighth</type>
        </note>
      <note default-x="73.90" default-y="-50.00">
        <pitch>
          <step>C</step>
          <octave>4</octave>
          </pitch>
        <duration>1</duration>
        <voice>1</voice>
        <type>eighth</type>
        <stem>up</stem>
        <lyric number="1" default-x="6.50" default-y="-51.75" relative-y="-30.00">
          <syllabic>single</syllabic>
          <text>주</text>
          </lyric>
        <lyric number="2" default-x="6.50" default-y="-73.49" relative-y="-30.00">
          <syllabic>single</syllabic>
          <text>주</text>
          </lyric>
        </note>
      <note default-x="100.46" default-y="-35.00">
        <pitch>
          <step>F</step>
          <octave>4</octave>
          </pitch>
        <duration>1</duration>
        <voice>1</voice>
        <type>eighth</type>
        <stem>up</stem>
        <lyric number="1" default-x="6.50" default-y="-51.75" relative-y="-30.00">
          <syllabic>single</syllabic>
          <text>님</text>
          </lyric>
        <lyric number="2" default-x="6.50" default-y="-73.49" relative-y="-30.00">
          <syllabic>single</syllabic>
          <text>님</text>
          </lyric>
        </note>
      <note default-x="127.01" default-y="-30.00">
        <pitch>
          <step>G</step>
          <octave>4</octave>
          </pitch>
        <duration>1</duration>
        <voice>1</voice>
        <type>eighth</type>
        <stem>up</stem>
        <lyric number="1" default-x="6.50" default-y="-51.75" relative-y="-30.00">
          <syllabic>single</syllabic>
          <text>을</text>
          </lyric>
        <lyric number="2" default-x="6.50" default-y="-73.49" relative-y="-30.00">
          <syllabic>single</syllabic>
          <text>을</text>
          </lyric>
        </note>
      </measure>
    <measure number="10" width="155.84">
      <note default-x="16.50" default-y="-20.00">
        <pitch>
          <step>B</step>
          <alter>-1</alter>
          <octave>4</octave>
          </pitch>
        <duration>2</duration>
        <voice>1</voice>
        <type>quarter</type>
        <stem>down</stem>
        <lyric number="1" default-x="6.50" default-y="-51.75" relative-y="-30.00">
          <syllabic>single</syllabic>
          <text>찬</text>
          </lyric>
        <lyric number="2" default-x="6.50" default-y="-73.49" relative-y="-30.00">
          <syllabic>single</syllabic>
          <text>경</text>
          </lyric>
        </note>
      <note default-x="43.53" default-y="-25.00">
        <pitch>
          <step>A</step>
          <octave>4</octave>
          </pitch>
        <duration>2</duration>
        <voice>1</voice>
        <type>quarter</type>
        <stem>up</stem>
        <lyric number="1" default-x="6.50" default-y="-51.75" relative-y="-30.00">
          <syllabic>single</syllabic>
          <text>양</text>
          </lyric>
        <lyric number="2" default-x="6.50" default-y="-73.49" relative-y="-30.00">
          <syllabic>single</syllabic>
          <text>배</text>
          </lyric>
        </note>
      <note default-x="70.56" default-y="-30.00">
        <pitch>
          <step>G</step>
          <octave>4</octave>
          </pitch>
        <duration>3</duration>
        <voice>1</voice>
        <type>quarter</type>
        <dot />
        <stem>up</stem>
        <lyric number="1" default-x="6.50" default-y="-51.75" relative-y="-30.00">
          <syllabic>single</syllabic>
          <text>합</text>
          </lyric>
        <lyric number="2" default-x="6.50" default-y="-73.49" relative-y="-30.00">
          <syllabic>single</syllabic>
          <text>합</text>
          </lyric>
        </note>
      <note default-x="114.49" default-y="-35.00">
        <pitch>
          <step>F</step>
          <octave>4</octave>
          </pitch>
        <duration>1</duration>
        <voice>1</voice>
        <type>eighth</type>
        <stem>up</stem>
        <lyric number="1" default-x="6.50" default-y="-51.75" relative-y="-30.00">
          <syllabic>single</syllabic>
          <text>니</text>
          </lyric>
        <lyric number="2" default-x="6.50" default-y="-73.49" relative-y="-30.00">
          <syllabic>single</syllabic>
          <text>니</text>
          </lyric>
        </note>
      </measure>
    <measure number="11" width="168.37">
      <note default-x="16.50" default-y="-35.00">
        <pitch>
          <step>F</step>
          <octave>4</octave>
          </pitch>
        <duration>4</duration>
        <voice>1</voice>
        <type>half</type>
        <stem>up</stem>
        <lyric number="1" default-x="6.50" default-y="-51.75" relative-y="-30.00">
          <syllabic>single</syllabic>
          <text>다</text>
          </lyric>
        <lyric number="2" default-x="6.50" default-y="-73.49" relative-y="-30.00">
          <syllabic>single</syllabic>
          <text>다</text>
          </lyric>
        </note>
      <note>
        <rest />
        <duration>1</duration>
        <voice>1</voice>
        <type>eighth</type>
        </note>
      <note default-x="73.90" default-y="-35.00">
        <pitch>
          <step>F</step>
          <octave>4</octave>
          </pitch>
        <duration>1</duration>
        <voice>1</voice>
        <type>eighth</type>
        <stem>up</stem>
        <lyric number="1" default-x="6.50" default-y="-51.75" relative-y="-30.00">
          <syllabic>single</syllabic>
          <text>내</text>
          </lyric>
        <lyric number="2" default-x="6.50" default-y="-73.49" relative-y="-30.00">
          <syllabic>single</syllabic>
          <text>내</text>
          </lyric>
        </note>
      <note default-x="100.46" default-y="-25.00">
        <pitch>
          <step>A</step>
          <octave>4</octave>
          </pitch>
        <duration>1</duration>
        <voice>1</voice>
        <type>eighth</type>
        <stem>up</stem>
        <lyric number="1" default-x="6.50" default-y="-51.75" relative-y="-30.00">
          <syllabic>single</syllabic>
          <text>맘</text>
          </lyric>
        <lyric number="2" default-x="6.50" default-y="-73.49" relative-y="-30.00">
          <syllabic>single</syllabic>
          <text>맘</text>
          </lyric>
        </note>
      <note default-x="127.01" default-y="-20.00">
        <pitch>
          <step>B</step>
          <alter>-1</alter>
          <octave>4</octave>
          </pitch>
        <duration>1</duration>
        <voice>1</voice>
        <type>eighth</type>
        <stem>down</stem>
        <lyric number="1" default-x="6.50" default-y="-51.75" relative-y="-30.00">
          <syllabic>single</syllabic>
          <text>과</text>
          </lyric>
        <lyric number="2" default-x="6.50" default-y="-73.49" relative-y="-30.00">
          <syllabic>single</syllabic>
          <text>과</text>
          </lyric>
        </note>
      </measure>
    <measure number="12" width="227.01">
      <print new-page="yes">
        <system-layout>
          <system-margins>
            <left-margin>0.00</left-margin>
            <right-margin>0.00</right-margin>
            </system-margins>
          <top-system-distance>70.00</top-system-distance>
          </system-layout>
        </print>
      <note default-x="79.48" default-y="-15.00">
        <pitch>
          <step>C</step>
          <octave>5</octave>
          </pitch>
        <duration>2</duration>
        <voice>1</voice>
        <type>quarter</type>
        <stem>down</stem>
        <lyric number="1" default-x="6.50" default-y="-51.75" relative-y="-30.00">
          <syllabic>single</syllabic>
          <text>정</text>
          </lyric>
        <lyric number="2" default-x="6.50" default-y="-73.49" relative-y="-30.00">
          <syllabic>single</syllabic>
          <text>정</text>
          </lyric>
        </note>
      <note default-x="108.77" default-y="-15.00">
        <pitch>
          <step>C</step>
          <octave>5</octave>
          </pitch>
        <duration>2</duration>
        <voice>1</voice>
        <type>quarter</type>
        <stem>down</stem>
        <lyric number="1" default-x="6.50" default-y="-51.75" relative-y="-30.00">
          <syllabic>single</syllabic>
          <text>성</text>
          </lyric>
        <lyric number="2" default-x="6.50" default-y="-73.49" relative-y="-30.00">
          <syllabic>single</syllabic>
          <text>성</text>
          </lyric>
        </note>
      <note default-x="138.06" default-y="-20.00">
        <pitch>
          <step>B</step>
          <alter>-1</alter>
          <octave>4</octave>
          </pitch>
        <duration>3</duration>
        <voice>1</voice>
        <type>quarter</type>
        <dot />
        <stem>down</stem>
        <lyric number="1" default-x="6.50" default-y="-51.75" relative-y="-30.00">
          <syllabic>single</syllabic>
          <text>다</text>
          </lyric>
        <lyric number="2" default-x="6.50" default-y="-73.49" relative-y="-30.00">
          <syllabic>single</syllabic>
          <text>다</text>
          </lyric>
        </note>
      <note default-x="185.66" default-y="-25.00">
        <pitch>
          <step>A</step>
          <octave>4</octave>
          </pitch>
        <duration>1</duration>
        <voice>1</voice>
        <type>eighth</type>
        <stem>up</stem>
        <lyric number="1" default-x="6.50" default-y="-51.75" relative-y="-30.00">
          <syllabic>single</syllabic>
          <text>하</text>
          </lyric>
        <lyric number="2" default-x="6.50" default-y="-73.49" relative-y="-30.00">
          <syllabic>single</syllabic>
          <text>하</text>
          </lyric>
        </note>
      </measure>
    <measure number="13" width="166.58">
      <note default-x="16.50" default-y="-25.00">
        <pitch>
          <step>A</step>
          <octave>4</octave>
          </pitch>
        <duration>4</duration>
        <voice>1</voice>
        <type>half</type>
        <stem>up</stem>
        <lyric number="1" default-x="6.50" default-y="-51.75" relative-y="-30.00">
          <syllabic>single</syllabic>
          <text>여</text>
          </lyric>
        <lyric number="2" default-x="6.50" default-y="-73.49" relative-y="-30.00">
          <syllabic>single</syllabic>
          <text>여</text>
          </lyric>
        </note>
      <note>
        <rest />
        <duration>1</duration>
        <voice>1</voice>
        <type>eighth</type>
        </note>
      <note default-x="72.11" default-y="-15.00">
        <pitch>
          <step>C</step>
          <octave>5</octave>
          </pitch>
        <duration>1</duration>
        <voice>1</voice>
        <type>eighth</type>
        <stem>down</stem>
        <lyric number="1" default-x="6.50" default-y="-51.75" relative-y="-30.00">
          <syllabic>single</syllabic>
          <text>주</text>
          </lyric>
        <lyric number="2" default-x="6.50" default-y="-73.49" relative-y="-30.00">
          <syllabic>single</syllabic>
          <text>주</text>
          </lyric>
        </note>
      <note default-x="98.66" default-y="-15.00">
        <pitch>
          <step>C</step>
          <octave>5</octave>
          </pitch>
        <duration>1</duration>
        <voice>1</voice>
        <type>eighth</type>
        <stem>down</stem>
        <lyric number="1" default-x="6.50" default-y="-51.75" relative-y="-30.00">
          <syllabic>single</syllabic>
          <text>안</text>
          </lyric>
        <lyric number="2" default-x="6.50" default-y="-73.49" relative-y="-30.00">
          <syllabic>single</syllabic>
          <text>안</text>
          </lyric>
        </note>
      <note default-x="125.22" default-y="-20.00">
        <pitch>
          <step>B</step>
          <alter>-1</alter>
          <octave>4</octave>
          </pitch>
        <duration>1</duration>
        <voice>1</voice>
        <type>eighth</type>
        <stem>down</stem>
        <lyric number="1" default-x="6.50" default-y="-51.75" relative-y="-30.00">
          <syllabic>single</syllabic>
          <text>에</text>
          </lyric>
        <lyric number="2" default-x="6.50" default-y="-73.49" relative-y="-30.00">
          <syllabic>single</syllabic>
          <text>에</text>
          </lyric>
        </note>
      </measure>
    <measure number="14" width="142.88">
      <note default-x="16.50" default-y="-25.00">
        <pitch>
          <step>A</step>
          <octave>4</octave>
          </pitch>
        <duration>2</duration>
        <voice>1</voice>
        <type>quarter</type>
        <stem>up</stem>
        <lyric number="1" default-x="6.50" default-y="-51.75" relative-y="-30.00">
          <syllabic>single</syllabic>
          <text>서</text>
          </lyric>
        <lyric number="2" default-x="6.50" default-y="-73.49" relative-y="-30.00">
          <syllabic>single</syllabic>
          <text>서</text>
          </lyric>
        </note>
      <note default-x="46.59" default-y="-30.00">
        <pitch>
          <step>G</step>
          <octave>4</octave>
          </pitch>
        <duration>1</duration>
        <voice>1</voice>
        <type>eighth</type>
        <stem>up</stem>
        <lyric number="1" default-x="6.50" default-y="-51.75" relative-y="-30.00">
          <syllabic>single</syllabic>
          <text>언</text>
          </lyric>
        <lyric number="2" default-x="6.50" default-y="-73.49" relative-y="-30.00">
          <syllabic>single</syllabic>
          <text>언</text>
          </lyric>
        </note>
      <note default-x="73.15" default-y="-35.00">
        <pitch>
          <step>F</step>
          <octave>4</octave>
          </pitch>
        <duration>1</duration>
        <voice>1</voice>
        <type>eighth</type>
        <stem>up</stem>
        <lyric number="1" default-x="6.50" default-y="-51.75" relative-y="-30.00">
          <syllabic>single</syllabic>
          <text>제</text>
          </lyric>
        <lyric number="2" default-x="6.50" default-y="-73.49" relative-y="-30.00">
          <syllabic>single</syllabic>
          <text>제</text>
          </lyric>
        </note>
      <note default-x="99.71" default-y="-20.00">
        <pitch>
          <step>B</step>
          <alter>-1</alter>
          <octave>4</octave>
          </pitch>
        <duration>4</duration>
        <voice>1</voice>
        <type>half</type>
        <stem>down</stem>
        <lyric number="1" default-x="6.50" default-y="-51.75" relative-y="-30.00">
          <syllabic>single</syllabic>
          <text>나</text>
          </lyric>
        <lyric number="2" default-x="6.50" default-y="-73.49" relative-y="-30.00">
          <syllabic>single</syllabic>
          <text>나</text>
          </lyric>
        </note>
      </measure>
    <measure number="15" width="137.91">
      <note default-x="19.32" default-y="-10.00">
        <pitch>
          <step>D</step>
          <octave>5</octave>
          </pitch>
        <duration>2</duration>
        <voice>1</voice>
        <type>quarter</type>
        <stem>down</stem>
        <lyric number="1" default-x="6.50" default-y="-51.75" relative-y="-30.00">
          <syllabic>single</syllabic>
          <text>기</text>
          </lyric>
        <lyric number="2" default-x="6.50" default-y="-73.49" relative-y="-30.00">
          <syllabic>single</syllabic>
          <text>사</text>
          </lyric>
        </note>
      <note default-x="48.40" default-y="-10.00">
        <pitch>
          <step>D</step>
          <octave>5</octave>
          </pitch>
        <duration>2</duration>
        <voice>1</voice>
        <type>quarter</type>
        <stem>down</stem>
        <lyric number="1" default-x="6.50" default-y="-51.75" relative-y="-30.00">
          <syllabic>single</syllabic>
          <text>뻐</text>
          </lyric>
        <lyric number="2" default-x="6.50" default-y="-73.49" relative-y="-30.00">
          <syllabic>single</syllabic>
          <text>랑</text>
          </lyric>
        </note>
      <note default-x="77.48" default-y="-20.00">
        <pitch>
          <step>B</step>
          <octave>4</octave>
          </pitch>
        <duration>2</duration>
        <voice>1</voice>
        <type>quarter</type>
        <accidental>natural</accidental>
        <stem>down</stem>
        <lyric number="1" default-x="6.50" default-y="-51.75" relative-y="-30.00">
          <syllabic>single</syllabic>
          <text>하</text>
          </lyric>
        <lyric number="2" default-x="6.50" default-y="-73.49" relative-y="-30.00">
          <syllabic>single</syllabic>
          <text>하</text>
          </lyric>
        </note>
      <note default-x="106.55" default-y="-20.00">
        <pitch>
          <step>B</step>
          <octave>4</octave>
          </pitch>
        <duration>2</duration>
        <voice>1</voice>
        <type>quarter</type>
        <stem>down</stem>
        <lyric number="1" default-x="6.50" default-y="-51.75" relative-y="-30.00">
          <syllabic>single</syllabic>
          <text>리</text>
          </lyric>
        <lyric number="2" default-x="6.50" default-y="-73.49" relative-y="-30.00">
          <syllabic>single</syllabic>
          <text>리</text>
          </lyric>
        </note>
      </measure>
    <measure number="16" width="188.41">
      <note default-x="15.63" default-y="-15.00">
        <pitch>
          <step>C</step>
          <octave>5</octave>
          </pitch>
        <duration>4</duration>
        <voice>1</voice>
        <type>half</type>
        <stem>down</stem>
        <lyric number="1" default-x="6.50" default-y="-51.75" relative-y="-30.00">
          <syllabic>single</syllabic>
          <text>라</text>
          </lyric>
        <lyric number="2" default-x="6.50" default-y="-73.49" relative-y="-30.00">
          <syllabic>single</syllabic>
          <text>라</text>
          </lyric>
        </note>
      <note>
        <rest />
        <duration>1</duration>
        <voice>1</voice>
        <type>eighth</type>
        </note>
      <note default-x="82.41" default-y="-20.00">
        <pitch>
          <step>B</step>
          <octave>4</octave>
          </pitch>
        <duration>1</duration>
        <voice>1</voice>
        <type>eighth</type>
        <accidental>natural</accidental>
        <stem>down</stem>
        <lyric number="1" default-x="6.50" default-y="-51.75" relative-y="-30.00">
          <syllabic>single</syllabic>
          <text>할</text>
          </lyric>
        <lyric number="2" default-x="6.50" default-y="-73.49" relative-y="-30.00">
          <syllabic>single</syllabic>
          <text>할</text>
          </lyric>
        </note>
      <note default-x="108.96" default-y="-15.00">
        <pitch>
          <step>C</step>
          <octave>5</octave>
          </pitch>
        <duration>1</duration>
        <voice>1</voice>
        <type>eighth</type>
        <stem>down</stem>
        <lyric number="1" default-x="6.50" default-y="-51.75" relative-y="-30.00">
          <syllabic>single</syllabic>
          <text>렐</text>
          </lyric>
        <lyric number="2" default-x="6.50" default-y="-73.49" relative-y="-30.00">
          <syllabic>single</syllabic>
          <text>렐</text>
          </lyric>
        </note>
      <note default-x="147.06" default-y="-10.00">
        <pitch>
          <step>D</step>
          <octave>5</octave>
          </pitch>
        <duration>1</duration>
        <voice>1</voice>
        <type>eighth</type>
        <stem>down</stem>
        <lyric number="1" default-x="6.50" default-y="-51.75" relative-y="-30.00">
          <syllabic>single</syllabic>
          <text>루</text>
          </lyric>
        <lyric number="2" default-x="6.50" default-y="-73.49" relative-y="-30.00">
          <syllabic>single</syllabic>
          <text>루</text>
          </lyric>
        </note>
      </measure>
    <measure number="17" width="165.91">
      <note default-x="15.83" default-y="-15.00">
        <pitch>
          <step>C</step>
          <octave>5</octave>
          </pitch>
        <duration>4</duration>
        <voice>1</voice>
        <type>half</type>
        <stem>down</stem>
        <lyric number="1" default-x="6.50" default-y="-51.75" relative-y="-30.00">
          <syllabic>single</syllabic>
          <text>야</text>
          </lyric>
        <lyric number="2" default-x="6.50" default-y="-73.49" relative-y="-30.00">
          <syllabic>single</syllabic>
          <text>야</text>
          </lyric>
        </note>
      <note>
        <rest />
        <duration>1</duration>
        <voice>1</voice>
        <type>eighth</type>
        </note>
      <note default-x="71.44" default-y="-15.00">
        <pitch>
          <step>C</step>
          <octave>5</octave>
          </pitch>
        <duration>1</duration>
        <voice>1</voice>
        <type>eighth</type>
        <stem>down</stem>
        <lyric number="1" default-x="6.50" default-y="-51.75" relative-y="-30.00">
          <syllabic>single</syllabic>
          <text>주</text>
          </lyric>
        <lyric number="2" default-x="6.50" default-y="-73.49" relative-y="-30.00">
          <syllabic>single</syllabic>
          <text>주</text>
          </lyric>
        </note>
      <note default-x="98.00" default-y="-15.00">
        <pitch>
          <step>C</step>
          <octave>5</octave>
          </pitch>
        <duration>1</duration>
        <voice>1</voice>
        <type>eighth</type>
        <stem>down</stem>
        <lyric number="1" default-x="6.50" default-y="-51.75" relative-y="-30.00">
          <syllabic>single</syllabic>
          <text>안</text>
          </lyric>
        <lyric number="2" default-x="6.50" default-y="-73.49" relative-y="-30.00">
          <syllabic>single</syllabic>
          <text>안</text>
          </lyric>
        </note>
      <note default-x="124.55" default-y="-20.00">
        <pitch>
          <step>B</step>
          <alter>-1</alter>
          <octave>4</octave>
          </pitch>
        <duration>1</duration>
        <voice>1</voice>
        <type>eighth</type>
        <stem>down</stem>
        <lyric number="1" default-x="6.50" default-y="-51.75" relative-y="-30.00">
          <syllabic>single</syllabic>
          <text>에</text>
          </lyric>
        <lyric number="2" default-x="6.50" default-y="-73.49" relative-y="-30.00">
          <syllabic>single</syllabic>
          <text>에</text>
          </lyric>
        </note>
      </measure>
    <measure number="18" width="328.36">
      <print new-system="yes">
        <system-layout>
          <system-margins>
            <left-margin>0.00</left-margin>
            <right-margin>0.00</right-margin>
            </system-margins>
          <system-distance>150.00</system-distance>
          </system-layout>
        </print>
      <note default-x="79.48" default-y="-25.00">
        <pitch>
          <step>A</step>
          <octave>4</octave>
          </pitch>
        <duration>2</duration>
        <voice>1</voice>
        <type>quarter</type>
        <stem>up</stem>
        <lyric number="1" default-x="6.50" default-y="-48.00" relative-y="-30.00">
          <syllabic>single</syllabic>
          <text>서</text>
          </lyric>
        <lyric number="2" default-x="6.50" default-y="-69.74" relative-y="-30.00">
          <syllabic>single</syllabic>
          <text>서</text>
          </lyric>
        </note>
      <note default-x="147.64" default-y="-30.00">
        <pitch>
          <step>G</step>
          <octave>4</octave>
          </pitch>
        <duration>1</duration>
        <voice>1</voice>
        <type>eighth</type>
        <stem>up</stem>
        <lyric number="1" default-x="6.50" default-y="-48.00" relative-y="-30.00">
          <syllabic>single</syllabic>
          <text>언</text>
          </lyric>
        <lyric number="2" default-x="6.50" default-y="-69.74" relative-y="-30.00">
          <syllabic>single</syllabic>
          <text>언</text>
          </lyric>
        </note>
      <note default-x="190.24" default-y="-35.00">
        <pitch>
          <step>F</step>
          <octave>4</octave>
          </pitch>
        <duration>1</duration>
        <voice>1</voice>
        <type>eighth</type>
        <stem>up</stem>
        <lyric number="1" default-x="6.50" default-y="-48.00" relative-y="-30.00">
          <syllabic>single</syllabic>
          <text>제</text>
          </lyric>
        <lyric number="2" default-x="6.50" default-y="-69.74" relative-y="-30.00">
          <syllabic>single</syllabic>
          <text>제</text>
          </lyric>
        </note>
      <note default-x="232.84" default-y="-20.00">
        <pitch>
          <step>B</step>
          <alter>-1</alter>
          <octave>4</octave>
          </pitch>
        <duration>4</duration>
        <voice>1</voice>
        <type>half</type>
        <stem>down</stem>
        <lyric number="1" default-x="6.50" default-y="-48.00" relative-y="-30.00">
          <syllabic>single</syllabic>
          <text>나</text>
          </lyric>
        <lyric number="2" default-x="6.50" default-y="-69.74" relative-y="-30.00">
          <syllabic>single</syllabic>
          <text>나</text>
          </lyric>
        </note>
      </measure>
    <measure number="19" width="258.52">
      <note default-x="16.21" default-y="-30.00">
        <pitch>
          <step>G</step>
          <octave>4</octave>
          </pitch>
        <duration>2</duration>
        <voice>1</voice>
        <type>quarter</type>
        <stem>up</stem>
        <lyric number="1" default-x="6.50" default-y="-48.00" relative-y="-30.00">
          <syllabic>single</syllabic>
          <text>기</text>
          </lyric>
        <lyric number="2" default-x="6.50" default-y="-69.74" relative-y="-30.00">
          <syllabic>single</syllabic>
          <text>사</text>
          </lyric>
        </note>
      <note default-x="76.34" default-y="-30.00">
        <pitch>
          <step>G</step>
          <octave>4</octave>
          </pitch>
        <duration>2</duration>
        <voice>1</voice>
        <type>quarter</type>
        <stem>up</stem>
        <lyric number="1" default-x="6.50" default-y="-48.00" relative-y="-30.00">
          <syllabic>single</syllabic>
          <text>뻐</text>
          </lyric>
        <lyric number="2" default-x="6.50" default-y="-69.74" relative-y="-30.00">
          <syllabic>single</syllabic>
          <text>랑</text>
          </lyric>
        </note>
      <note default-x="136.46" default-y="-30.00">
        <pitch>
          <step>G</step>
          <octave>4</octave>
          </pitch>
        <duration>2</duration>
        <voice>1</voice>
        <type>quarter</type>
        <stem>up</stem>
        <lyric number="1" default-x="6.50" default-y="-48.00" relative-y="-30.00">
          <syllabic>single</syllabic>
          <text>하</text>
          </lyric>
        <lyric number="2" default-x="6.50" default-y="-69.74" relative-y="-30.00">
          <syllabic>single</syllabic>
          <text>하</text>
          </lyric>
        </note>
      <note default-x="196.59" default-y="-30.00">
        <pitch>
          <step>G</step>
          <octave>4</octave>
          </pitch>
        <duration>2</duration>
        <voice>1</voice>
        <type>quarter</type>
        <stem>up</stem>
        <lyric number="1" default-x="6.50" default-y="-48.00" relative-y="-30.00">
          <syllabic>single</syllabic>
          <text>리</text>
          </lyric>
        <lyric number="2" default-x="6.50" default-y="-69.74" relative-y="-30.00">
          <syllabic>single</syllabic>
          <text>리</text>
          </lyric>
        </note>
      </measure>
    <measure number="20" width="289.07">
      <note default-x="16.50" default-y="-15.00">
        <pitch>
          <step>C</step>
          <octave>5</octave>
          </pitch>
        <duration>4</duration>
        <voice>1</voice>
        <type>half</type>
        <stem>down</stem>
        <lyric number="1" default-x="6.50" default-y="-48.00" relative-y="-30.00">
          <syllabic>single</syllabic>
          <text>라</text>
          </lyric>
        <lyric number="2" default-x="6.50" default-y="-69.74" relative-y="-30.00">
          <syllabic>single</syllabic>
          <text>라</text>
          </lyric>
        </note>
      <note>
        <rest />
        <duration>1</duration>
        <voice>1</voice>
        <type>eighth</type>
        </note>
      <note default-x="156.25" default-y="-15.00">
        <pitch>
          <step>C</step>
          <octave>5</octave>
          </pitch>
        <duration>1</duration>
        <voice>1</voice>
        <type>eighth</type>
        <stem>down</stem>
        <lyric number="1" default-x="6.50" default-y="-48.00" relative-y="-30.00">
          <syllabic>single</syllabic>
          <text>할</text>
          </lyric>
        <lyric number="2" default-x="6.50" default-y="-69.74" relative-y="-30.00">
          <syllabic>single</syllabic>
          <text>할</text>
          </lyric>
        </note>
      <note default-x="199.93" default-y="-15.00">
        <pitch>
          <step>C</step>
          <octave>5</octave>
          </pitch>
        <duration>1</duration>
        <voice>1</voice>
        <type>eighth</type>
        <stem>down</stem>
        <lyric number="1" default-x="6.50" default-y="-48.00" relative-y="-30.00">
          <syllabic>single</syllabic>
          <text>렐</text>
          </lyric>
        <lyric number="2" default-x="6.50" default-y="-69.74" relative-y="-30.00">
          <syllabic>single</syllabic>
          <text>렐</text>
          </lyric>
        </note>
      <note default-x="243.60" default-y="-15.00">
        <pitch>
          <step>C</step>
          <octave>5</octave>
          </pitch>
        <duration>1</duration>
        <voice>1</voice>
        <type>eighth</type>
        <stem>down</stem>
        <lyric number="1" default-x="6.50" default-y="-48.00" relative-y="-30.00">
          <syllabic>single</syllabic>
          <text>루</text>
          </lyric>
        <lyric number="2" default-x="6.50" default-y="-69.74" relative-y="-30.00">
          <syllabic>single</syllabic>
          <text>루</text>
          </lyric>
        </note>
      </measure>
    <measure number="21" width="152.75">
      <note default-x="16.50" default-y="-35.00">
        <pitch>
          <step>F</step>
          <octave>4</octave>
          </pitch>
        <duration>4</duration>
        <voice>1</voice>
        <type>half</type>
        <stem>up</stem>
        <lyric number="1" default-x="6.50" default-y="-48.00" relative-y="-30.00">
          <syllabic>single</syllabic>
          <text>야</text>
          </lyric>
        <lyric number="2" default-x="6.50" default-y="-69.74" relative-y="-30.00">
          <syllabic>single</syllabic>
          <text>야</text>
          </lyric>
        </note>
      <note>
        <rest />
        <duration>1</duration>
        <voice>1</voice>
        <type>eighth</type>
        </note>
      <barline location="right">
        <bar-style>light-heavy</bar-style>
        </barline>
      </measure>
    </part>
  </score-partwise>